<?xml version="1.0" encoding="UTF-8" standalone="no"?>
<!DOCTYPE svg PUBLIC "-//W3C//DTD SVG 1.1//EN" "http://www.w3.org/Graphics/SVG/1.1/DTD/svg11.dtd">
<svg width="100%" height="100%" viewBox="0 0 475 101" version="1.1" xmlns="http://www.w3.org/2000/svg" xmlns:xlink="http://www.w3.org/1999/xlink" xml:space="preserve" xmlns:serif="http://www.serif.com/" style="fill-rule:evenodd;clip-rule:evenodd;stroke-linejoin:round;stroke-miterlimit:2;">
    <g transform="matrix(1,0,0,1,-143.622,-131.626)">
        <g transform="matrix(58.3333,0,0,58.3333,143.972,173.276)">
            <path d="M0.201,-0.295L0.322,-0.628L0.324,-0.628L0.443,-0.295L0.201,-0.295ZM0.272,-0.714L-0.006,0L0.091,0L0.171,-0.215L0.473,-0.215L0.551,0L0.656,0L0.377,-0.714L0.272,-0.714Z" style="fill-rule:nonzero;"/>
        </g>
        <g transform="matrix(58.3333,0,0,58.3333,182.705,173.276)">
            <path d="M0.061,-0.517L0.061,0L0.146,0L0.146,-0.23C0.146,-0.263 0.149,-0.293 0.156,-0.319C0.163,-0.344 0.173,-0.366 0.188,-0.384C0.203,-0.402 0.222,-0.416 0.246,-0.425C0.27,-0.434 0.299,-0.439 0.333,-0.439L0.333,-0.529C0.287,-0.53 0.249,-0.521 0.219,-0.501C0.189,-0.481 0.164,-0.45 0.143,-0.408L0.141,-0.408L0.141,-0.517L0.061,-0.517Z" style="fill-rule:nonzero;"/>
        </g>
        <g transform="matrix(58.3333,0,0,58.3333,201.43,173.276)">
            <path d="M0.415,-0.351L0.503,-0.351C0.5,-0.382 0.492,-0.408 0.479,-0.431C0.466,-0.453 0.45,-0.471 0.431,-0.486C0.411,-0.501 0.388,-0.511 0.363,-0.519C0.337,-0.526 0.309,-0.529 0.28,-0.529C0.239,-0.529 0.204,-0.522 0.173,-0.508C0.142,-0.493 0.117,-0.474 0.097,-0.449C0.076,-0.424 0.061,-0.394 0.051,-0.361C0.041,-0.327 0.036,-0.291 0.036,-0.252C0.036,-0.213 0.041,-0.178 0.052,-0.146C0.062,-0.113 0.077,-0.085 0.098,-0.062C0.118,-0.039 0.143,-0.021 0.174,-0.008C0.204,0.005 0.239,0.011 0.278,0.011C0.344,0.011 0.396,-0.006 0.435,-0.041C0.473,-0.076 0.497,-0.125 0.506,-0.189L0.419,-0.189C0.414,-0.149 0.399,-0.118 0.376,-0.096C0.352,-0.074 0.319,-0.063 0.277,-0.063C0.25,-0.063 0.227,-0.068 0.208,-0.079C0.189,-0.09 0.173,-0.104 0.161,-0.122C0.149,-0.139 0.14,-0.159 0.135,-0.182C0.129,-0.205 0.126,-0.228 0.126,-0.252C0.126,-0.278 0.129,-0.303 0.134,-0.328C0.139,-0.352 0.148,-0.373 0.161,-0.392C0.173,-0.411 0.189,-0.426 0.21,-0.437C0.231,-0.448 0.256,-0.454 0.287,-0.454C0.323,-0.454 0.352,-0.445 0.373,-0.427C0.394,-0.409 0.408,-0.384 0.415,-0.351Z" style="fill-rule:nonzero;"/>
        </g>
        <g transform="matrix(58.3333,0,0,58.3333,233.105,173.276)">
            <path d="M0.064,-0.714L0.064,0L0.149,0L0.149,-0.292C0.149,-0.315 0.152,-0.337 0.159,-0.357C0.165,-0.376 0.174,-0.393 0.187,-0.408C0.2,-0.423 0.216,-0.434 0.235,-0.442C0.254,-0.45 0.276,-0.454 0.302,-0.454C0.335,-0.454 0.36,-0.445 0.379,-0.426C0.398,-0.407 0.407,-0.382 0.407,-0.35L0.407,0L0.492,0L0.492,-0.34C0.492,-0.368 0.489,-0.393 0.484,-0.417C0.478,-0.44 0.468,-0.459 0.454,-0.476C0.44,-0.493 0.422,-0.506 0.399,-0.515C0.376,-0.524 0.348,-0.529 0.314,-0.529C0.299,-0.529 0.283,-0.527 0.267,-0.524C0.25,-0.521 0.235,-0.516 0.22,-0.509C0.205,-0.502 0.191,-0.493 0.179,-0.482C0.167,-0.47 0.158,-0.457 0.151,-0.441L0.149,-0.441L0.149,-0.714L0.064,-0.714Z" style="fill-rule:nonzero;"/>
        </g>
        <g transform="matrix(58.3333,0,0,58.3333,265.888,173.276)">
            <path d="M0.154,-0.61L0.154,-0.714L0.069,-0.714L0.069,-0.61L0.154,-0.61ZM0.069,-0.517L0.069,0L0.154,0L0.154,-0.517L0.069,-0.517Z" style="fill-rule:nonzero;"/>
        </g>
        <g transform="matrix(58.3333,0,0,58.3333,279.772,173.276)">
            <path d="M0.182,-0.517L0.182,-0.672L0.097,-0.672L0.097,-0.517L0.009,-0.517L0.009,-0.442L0.097,-0.442L0.097,-0.113C0.097,-0.089 0.099,-0.07 0.104,-0.055C0.109,-0.04 0.116,-0.029 0.126,-0.021C0.135,-0.013 0.148,-0.008 0.164,-0.005C0.179,-0.002 0.198,0 0.22,0L0.285,0L0.285,-0.075L0.246,-0.075C0.233,-0.075 0.222,-0.076 0.214,-0.077C0.205,-0.078 0.199,-0.08 0.194,-0.083C0.189,-0.086 0.186,-0.091 0.185,-0.097C0.183,-0.103 0.182,-0.111 0.182,-0.121L0.182,-0.442L0.285,-0.442L0.285,-0.517L0.182,-0.517Z" style="fill-rule:nonzero;"/>
        </g>
        <g transform="matrix(58.3333,0,0,58.3333,299.08,173.276)">
            <path d="M0.423,-0.308L0.126,-0.308C0.127,-0.328 0.132,-0.347 0.139,-0.365C0.146,-0.382 0.156,-0.398 0.169,-0.411C0.182,-0.424 0.197,-0.435 0.215,-0.443C0.232,-0.45 0.252,-0.454 0.274,-0.454C0.295,-0.454 0.315,-0.45 0.333,-0.443C0.35,-0.435 0.366,-0.425 0.379,-0.412C0.392,-0.399 0.402,-0.383 0.41,-0.365C0.417,-0.347 0.422,-0.328 0.423,-0.308ZM0.505,-0.164L0.421,-0.164C0.414,-0.13 0.399,-0.105 0.376,-0.088C0.353,-0.071 0.323,-0.063 0.287,-0.063C0.259,-0.063 0.235,-0.068 0.214,-0.077C0.193,-0.086 0.176,-0.099 0.163,-0.115C0.15,-0.13 0.14,-0.148 0.134,-0.169C0.128,-0.189 0.125,-0.21 0.126,-0.233L0.513,-0.233C0.514,-0.264 0.511,-0.297 0.505,-0.332C0.498,-0.367 0.485,-0.399 0.467,-0.428C0.448,-0.457 0.424,-0.482 0.394,-0.501C0.363,-0.52 0.325,-0.529 0.279,-0.529C0.244,-0.529 0.211,-0.522 0.182,-0.509C0.152,-0.496 0.126,-0.477 0.105,-0.453C0.083,-0.429 0.066,-0.401 0.054,-0.368C0.042,-0.335 0.036,-0.299 0.036,-0.26C0.037,-0.221 0.043,-0.184 0.054,-0.151C0.064,-0.118 0.079,-0.089 0.1,-0.065C0.121,-0.041 0.146,-0.022 0.177,-0.009C0.207,0.004 0.243,0.011 0.284,0.011C0.343,0.011 0.391,-0.004 0.43,-0.033C0.469,-0.062 0.494,-0.106 0.505,-0.164Z" style="fill-rule:nonzero;"/>
        </g>
        <g transform="matrix(58.3333,0,0,58.3333,331.338,173.276)">
            <path d="M0.069,-0.714L0.069,0L0.154,0L0.154,-0.196L0.234,-0.27L0.411,0L0.519,0L0.299,-0.329L0.504,-0.517L0.39,-0.517L0.154,-0.291L0.154,-0.714L0.069,-0.714Z" style="fill-rule:nonzero;"/>
        </g>
        <g transform="matrix(58.3333,0,0,58.3333,363.13,173.276)">
            <path d="M0.182,-0.517L0.182,-0.672L0.097,-0.672L0.097,-0.517L0.009,-0.517L0.009,-0.442L0.097,-0.442L0.097,-0.113C0.097,-0.089 0.099,-0.07 0.104,-0.055C0.109,-0.04 0.116,-0.029 0.126,-0.021C0.135,-0.013 0.148,-0.008 0.164,-0.005C0.179,-0.002 0.198,0 0.22,0L0.285,0L0.285,-0.075L0.246,-0.075C0.233,-0.075 0.222,-0.076 0.214,-0.077C0.205,-0.078 0.199,-0.08 0.194,-0.083C0.189,-0.086 0.186,-0.091 0.185,-0.097C0.183,-0.103 0.182,-0.111 0.182,-0.121L0.182,-0.442L0.285,-0.442L0.285,-0.517L0.182,-0.517Z" style="fill-rule:nonzero;"/>
        </g>
        <g transform="matrix(58.3333,0,0,58.3333,382.438,173.276)">
            <path d="M0.492,0L0.492,-0.517L0.407,-0.517L0.407,-0.225C0.407,-0.202 0.404,-0.18 0.398,-0.161C0.391,-0.141 0.382,-0.124 0.369,-0.109C0.356,-0.094 0.341,-0.083 0.322,-0.075C0.303,-0.067 0.28,-0.063 0.254,-0.063C0.221,-0.063 0.196,-0.072 0.177,-0.091C0.158,-0.11 0.149,-0.135 0.149,-0.167L0.149,-0.517L0.064,-0.517L0.064,-0.177C0.064,-0.149 0.067,-0.124 0.073,-0.101C0.078,-0.078 0.088,-0.058 0.102,-0.041C0.116,-0.024 0.134,-0.012 0.157,-0.003C0.18,0.007 0.208,0.011 0.242,0.011C0.28,0.011 0.313,0.003 0.341,-0.012C0.369,-0.027 0.392,-0.05 0.41,-0.082L0.412,-0.082L0.412,0L0.492,0Z" style="fill-rule:nonzero;"/>
        </g>
        <g transform="matrix(58.3333,0,0,58.3333,414.638,173.276)">
            <path d="M0.061,-0.517L0.061,0L0.146,0L0.146,-0.23C0.146,-0.263 0.149,-0.293 0.156,-0.319C0.163,-0.344 0.173,-0.366 0.188,-0.384C0.203,-0.402 0.222,-0.416 0.246,-0.425C0.27,-0.434 0.299,-0.439 0.333,-0.439L0.333,-0.529C0.287,-0.53 0.249,-0.521 0.219,-0.501C0.189,-0.481 0.164,-0.45 0.143,-0.408L0.141,-0.408L0.141,-0.517L0.061,-0.517Z" style="fill-rule:nonzero;"/>
        </g>
        <g transform="matrix(58.3333,0,0,58.3333,436.163,173.276)">
            <path d="M0.182,-0.517L0.182,-0.672L0.097,-0.672L0.097,-0.517L0.009,-0.517L0.009,-0.442L0.097,-0.442L0.097,-0.113C0.097,-0.089 0.099,-0.07 0.104,-0.055C0.109,-0.04 0.116,-0.029 0.126,-0.021C0.135,-0.013 0.148,-0.008 0.164,-0.005C0.179,-0.002 0.198,0 0.22,0L0.285,0L0.285,-0.075L0.246,-0.075C0.233,-0.075 0.222,-0.076 0.214,-0.077C0.205,-0.078 0.199,-0.08 0.194,-0.083C0.189,-0.086 0.186,-0.091 0.185,-0.097C0.183,-0.103 0.182,-0.111 0.182,-0.121L0.182,-0.442L0.285,-0.442L0.285,-0.517L0.182,-0.517Z" style="fill-rule:nonzero;"/>
        </g>
        <g transform="matrix(58.3333,0,0,58.3333,455.472,173.276)">
            <path d="M0.064,-0.714L0.064,0L0.149,0L0.149,-0.292C0.149,-0.315 0.152,-0.337 0.159,-0.357C0.165,-0.376 0.174,-0.393 0.187,-0.408C0.2,-0.423 0.216,-0.434 0.235,-0.442C0.254,-0.45 0.276,-0.454 0.302,-0.454C0.335,-0.454 0.36,-0.445 0.379,-0.426C0.398,-0.407 0.407,-0.382 0.407,-0.35L0.407,0L0.492,0L0.492,-0.34C0.492,-0.368 0.489,-0.393 0.484,-0.417C0.478,-0.44 0.468,-0.459 0.454,-0.476C0.44,-0.493 0.422,-0.506 0.399,-0.515C0.376,-0.524 0.348,-0.529 0.314,-0.529C0.299,-0.529 0.283,-0.527 0.267,-0.524C0.25,-0.521 0.235,-0.516 0.22,-0.509C0.205,-0.502 0.191,-0.493 0.179,-0.482C0.167,-0.47 0.158,-0.457 0.151,-0.441L0.149,-0.441L0.149,-0.714L0.064,-0.714Z" style="fill-rule:nonzero;"/>
        </g>
        <g transform="matrix(58.3333,0,0,58.3333,487.672,173.276)">
            <path d="M0.423,-0.308L0.126,-0.308C0.127,-0.328 0.132,-0.347 0.139,-0.365C0.146,-0.382 0.156,-0.398 0.169,-0.411C0.182,-0.424 0.197,-0.435 0.215,-0.443C0.232,-0.45 0.252,-0.454 0.274,-0.454C0.295,-0.454 0.315,-0.45 0.333,-0.443C0.35,-0.435 0.366,-0.425 0.379,-0.412C0.392,-0.399 0.402,-0.383 0.41,-0.365C0.417,-0.347 0.422,-0.328 0.423,-0.308ZM0.505,-0.164L0.421,-0.164C0.414,-0.13 0.399,-0.105 0.376,-0.088C0.353,-0.071 0.323,-0.063 0.287,-0.063C0.259,-0.063 0.235,-0.068 0.214,-0.077C0.193,-0.086 0.176,-0.099 0.163,-0.115C0.15,-0.13 0.14,-0.148 0.134,-0.169C0.128,-0.189 0.125,-0.21 0.126,-0.233L0.513,-0.233C0.514,-0.264 0.511,-0.297 0.505,-0.332C0.498,-0.367 0.485,-0.399 0.467,-0.428C0.448,-0.457 0.424,-0.482 0.394,-0.501C0.363,-0.52 0.325,-0.529 0.279,-0.529C0.244,-0.529 0.211,-0.522 0.182,-0.509C0.152,-0.496 0.126,-0.477 0.105,-0.453C0.083,-0.429 0.066,-0.401 0.054,-0.368C0.042,-0.335 0.036,-0.299 0.036,-0.26C0.037,-0.221 0.043,-0.184 0.054,-0.151C0.064,-0.118 0.079,-0.089 0.1,-0.065C0.121,-0.041 0.146,-0.022 0.177,-0.009C0.207,0.004 0.243,0.011 0.284,0.011C0.343,0.011 0.391,-0.004 0.43,-0.033C0.469,-0.062 0.494,-0.106 0.505,-0.164Z" style="fill-rule:nonzero;"/>
        </g>
        <g transform="matrix(58.3333,0,0,58.3333,519.93,173.276)">
            <path d="M0.126,-0.258C0.126,-0.289 0.13,-0.317 0.139,-0.342C0.147,-0.366 0.158,-0.386 0.173,-0.403C0.188,-0.42 0.205,-0.432 0.225,-0.441C0.244,-0.45 0.265,-0.454 0.287,-0.454C0.309,-0.454 0.33,-0.45 0.35,-0.441C0.369,-0.432 0.386,-0.42 0.401,-0.403C0.416,-0.386 0.427,-0.366 0.436,-0.342C0.444,-0.317 0.448,-0.289 0.448,-0.258C0.448,-0.227 0.444,-0.199 0.436,-0.175C0.427,-0.15 0.416,-0.13 0.401,-0.114C0.386,-0.097 0.369,-0.085 0.35,-0.076C0.33,-0.067 0.309,-0.063 0.287,-0.063C0.265,-0.063 0.244,-0.067 0.225,-0.076C0.205,-0.085 0.188,-0.097 0.173,-0.114C0.158,-0.13 0.147,-0.15 0.139,-0.175C0.13,-0.199 0.126,-0.227 0.126,-0.258ZM0.036,-0.258C0.036,-0.22 0.041,-0.185 0.052,-0.152C0.063,-0.119 0.079,-0.091 0.1,-0.067C0.121,-0.042 0.148,-0.023 0.179,-0.01C0.21,0.004 0.246,0.011 0.287,0.011C0.328,0.011 0.365,0.004 0.396,-0.01C0.427,-0.023 0.453,-0.042 0.474,-0.067C0.495,-0.091 0.511,-0.119 0.522,-0.152C0.533,-0.185 0.538,-0.22 0.538,-0.258C0.538,-0.296 0.533,-0.331 0.522,-0.365C0.511,-0.398 0.495,-0.426 0.474,-0.451C0.453,-0.475 0.427,-0.494 0.396,-0.508C0.365,-0.522 0.328,-0.529 0.287,-0.529C0.246,-0.529 0.21,-0.522 0.179,-0.508C0.148,-0.494 0.121,-0.475 0.1,-0.451C0.079,-0.426 0.063,-0.398 0.052,-0.365C0.041,-0.331 0.036,-0.296 0.036,-0.258Z" style="fill-rule:nonzero;"/>
        </g>
        <g transform="matrix(58.3333,0,0,58.3333,553.763,173.276)">
            <path d="M0.061,-0.517L0.061,0L0.146,0L0.146,-0.23C0.146,-0.263 0.149,-0.293 0.156,-0.319C0.163,-0.344 0.173,-0.366 0.188,-0.384C0.203,-0.402 0.222,-0.416 0.246,-0.425C0.27,-0.434 0.299,-0.439 0.333,-0.439L0.333,-0.529C0.287,-0.53 0.249,-0.521 0.219,-0.501C0.189,-0.481 0.164,-0.45 0.143,-0.408L0.141,-0.408L0.141,-0.517L0.061,-0.517Z" style="fill-rule:nonzero;"/>
        </g>
        <g transform="matrix(58.3333,0,0,58.3333,574.122,173.276)">
            <path d="M0.154,-0.61L0.154,-0.714L0.069,-0.714L0.069,-0.61L0.154,-0.61ZM0.069,-0.517L0.069,0L0.154,0L0.154,-0.517L0.069,-0.517Z" style="fill-rule:nonzero;"/>
        </g>
        <g transform="matrix(58.3333,0,0,58.3333,588.005,173.276)">
            <path d="M0.423,-0.308L0.126,-0.308C0.127,-0.328 0.132,-0.347 0.139,-0.365C0.146,-0.382 0.156,-0.398 0.169,-0.411C0.182,-0.424 0.197,-0.435 0.215,-0.443C0.232,-0.45 0.252,-0.454 0.274,-0.454C0.295,-0.454 0.315,-0.45 0.333,-0.443C0.35,-0.435 0.366,-0.425 0.379,-0.412C0.392,-0.399 0.402,-0.383 0.41,-0.365C0.417,-0.347 0.422,-0.328 0.423,-0.308ZM0.505,-0.164L0.421,-0.164C0.414,-0.13 0.399,-0.105 0.376,-0.088C0.353,-0.071 0.323,-0.063 0.287,-0.063C0.259,-0.063 0.235,-0.068 0.214,-0.077C0.193,-0.086 0.176,-0.099 0.163,-0.115C0.15,-0.13 0.14,-0.148 0.134,-0.169C0.128,-0.189 0.125,-0.21 0.126,-0.233L0.513,-0.233C0.514,-0.264 0.511,-0.297 0.505,-0.332C0.498,-0.367 0.485,-0.399 0.467,-0.428C0.448,-0.457 0.424,-0.482 0.394,-0.501C0.363,-0.52 0.325,-0.529 0.279,-0.529C0.244,-0.529 0.211,-0.522 0.182,-0.509C0.152,-0.496 0.126,-0.477 0.105,-0.453C0.083,-0.429 0.066,-0.401 0.054,-0.368C0.042,-0.335 0.036,-0.299 0.036,-0.26C0.037,-0.221 0.043,-0.184 0.054,-0.151C0.064,-0.118 0.079,-0.089 0.1,-0.065C0.121,-0.041 0.146,-0.022 0.177,-0.009C0.207,0.004 0.243,0.011 0.284,0.011C0.343,0.011 0.391,-0.004 0.43,-0.033C0.469,-0.062 0.494,-0.106 0.505,-0.164Z" style="fill-rule:nonzero;"/>
        </g>
        <g transform="matrix(58.3333,0,0,58.3333,143.972,231.609)">
            <path d="M0.492,0L0.492,-0.517L0.407,-0.517L0.407,-0.225C0.407,-0.202 0.404,-0.18 0.398,-0.161C0.391,-0.141 0.382,-0.124 0.369,-0.109C0.356,-0.094 0.341,-0.083 0.322,-0.075C0.303,-0.067 0.28,-0.063 0.254,-0.063C0.221,-0.063 0.196,-0.072 0.177,-0.091C0.158,-0.11 0.149,-0.135 0.149,-0.167L0.149,-0.517L0.064,-0.517L0.064,-0.177C0.064,-0.149 0.067,-0.124 0.073,-0.101C0.078,-0.078 0.088,-0.058 0.102,-0.041C0.116,-0.024 0.134,-0.012 0.157,-0.003C0.18,0.007 0.208,0.011 0.242,0.011C0.28,0.011 0.313,0.003 0.341,-0.012C0.369,-0.027 0.392,-0.05 0.41,-0.082L0.412,-0.082L0.412,0L0.492,0Z" style="fill-rule:nonzero;"/>
        </g>
        <g transform="matrix(58.3333,0,0,58.3333,175.822,231.609)">
            <path d="M0.064,-0.517L0.064,0L0.149,0L0.149,-0.292C0.149,-0.315 0.152,-0.337 0.159,-0.357C0.165,-0.376 0.174,-0.393 0.187,-0.408C0.2,-0.423 0.216,-0.434 0.235,-0.442C0.254,-0.45 0.276,-0.454 0.302,-0.454C0.335,-0.454 0.36,-0.445 0.379,-0.426C0.398,-0.407 0.407,-0.382 0.407,-0.35L0.407,0L0.492,0L0.492,-0.34C0.492,-0.368 0.489,-0.393 0.484,-0.417C0.478,-0.44 0.468,-0.459 0.454,-0.476C0.44,-0.493 0.422,-0.506 0.399,-0.515C0.376,-0.524 0.348,-0.529 0.314,-0.529C0.237,-0.529 0.181,-0.498 0.146,-0.435L0.144,-0.435L0.144,-0.517L0.064,-0.517Z" style="fill-rule:nonzero;"/>
        </g>
        <g transform="matrix(58.3333,0,0,58.3333,207.672,231.609)">
            <path d="M0.126,-0.254C0.126,-0.279 0.129,-0.304 0.134,-0.328C0.139,-0.352 0.148,-0.373 0.16,-0.392C0.172,-0.411 0.188,-0.426 0.208,-0.437C0.228,-0.448 0.252,-0.454 0.281,-0.454C0.31,-0.454 0.335,-0.448 0.356,-0.438C0.377,-0.427 0.394,-0.412 0.407,-0.394C0.42,-0.376 0.429,-0.355 0.435,-0.332C0.441,-0.308 0.444,-0.283 0.444,-0.258C0.444,-0.234 0.441,-0.21 0.436,-0.187C0.43,-0.164 0.421,-0.143 0.408,-0.125C0.395,-0.106 0.379,-0.091 0.359,-0.08C0.339,-0.069 0.315,-0.063 0.286,-0.063C0.259,-0.063 0.235,-0.068 0.215,-0.079C0.194,-0.09 0.178,-0.104 0.165,-0.122C0.152,-0.14 0.142,-0.161 0.136,-0.184C0.129,-0.206 0.126,-0.23 0.126,-0.254ZM0.526,0L0.526,-0.714L0.441,-0.714L0.441,-0.448L0.439,-0.448C0.43,-0.463 0.418,-0.476 0.405,-0.487C0.391,-0.497 0.376,-0.505 0.361,-0.512C0.346,-0.518 0.33,-0.522 0.315,-0.525C0.3,-0.528 0.285,-0.529 0.272,-0.529C0.233,-0.529 0.198,-0.522 0.169,-0.508C0.139,-0.493 0.114,-0.474 0.095,-0.45C0.075,-0.425 0.06,-0.397 0.051,-0.364C0.041,-0.331 0.036,-0.297 0.036,-0.26C0.036,-0.223 0.041,-0.189 0.051,-0.156C0.061,-0.123 0.076,-0.095 0.096,-0.07C0.115,-0.045 0.14,-0.026 0.17,-0.011C0.199,0.004 0.234,0.011 0.274,0.011C0.31,0.011 0.343,0.005 0.373,-0.008C0.403,-0.021 0.425,-0.041 0.439,-0.07L0.441,-0.07L0.441,0L0.526,0Z" style="fill-rule:nonzero;"/>
        </g>
        <g transform="matrix(58.3333,0,0,58.3333,258.48,231.609)">
            <rect x="0.05" y="-0.318" width="0.289" height="0.08"/>
        </g>
        <g transform="matrix(58.3333,0,0,58.3333,281.172,231.609)">
            <path d="M0.576,0L0.741,-0.517L0.653,-0.517L0.537,-0.094L0.535,-0.094L0.427,-0.517L0.334,-0.517L0.23,-0.094L0.228,-0.094L0.111,-0.517L0.017,-0.517L0.183,0L0.275,0L0.379,-0.411L0.381,-0.411L0.486,0L0.576,0Z" style="fill-rule:nonzero;"/>
        </g>
        <g transform="matrix(58.3333,0,0,58.3333,325.388,231.609)">
            <path d="M0.154,-0.61L0.154,-0.714L0.069,-0.714L0.069,-0.61L0.154,-0.61ZM0.069,-0.517L0.069,0L0.154,0L0.154,-0.517L0.069,-0.517Z" style="fill-rule:nonzero;"/>
        </g>
        <g transform="matrix(58.3333,0,0,58.3333,338.338,231.609)">
            <path d="M0.116,-0.163L0.031,-0.163C0.032,-0.131 0.039,-0.104 0.051,-0.082C0.063,-0.059 0.079,-0.041 0.099,-0.028C0.119,-0.014 0.142,-0.004 0.168,0.002C0.194,0.008 0.221,0.011 0.25,0.011C0.276,0.011 0.302,0.008 0.329,0.004C0.355,-0.002 0.379,-0.01 0.4,-0.023C0.421,-0.036 0.438,-0.052 0.451,-0.073C0.464,-0.094 0.47,-0.12 0.47,-0.151C0.47,-0.176 0.465,-0.196 0.456,-0.213C0.446,-0.23 0.433,-0.244 0.418,-0.255C0.402,-0.266 0.384,-0.274 0.364,-0.281C0.343,-0.288 0.322,-0.293 0.301,-0.298C0.281,-0.303 0.261,-0.307 0.241,-0.312C0.221,-0.316 0.203,-0.321 0.187,-0.328C0.171,-0.334 0.158,-0.342 0.148,-0.352C0.137,-0.361 0.132,-0.373 0.132,-0.388C0.132,-0.401 0.135,-0.412 0.142,-0.421C0.149,-0.429 0.157,-0.436 0.168,-0.441C0.179,-0.446 0.191,-0.449 0.204,-0.451C0.217,-0.453 0.229,-0.454 0.242,-0.454C0.256,-0.454 0.27,-0.452 0.284,-0.45C0.297,-0.447 0.31,-0.442 0.321,-0.435C0.332,-0.428 0.342,-0.42 0.349,-0.409C0.356,-0.398 0.361,-0.384 0.362,-0.367L0.447,-0.367C0.445,-0.398 0.438,-0.425 0.427,-0.446C0.416,-0.467 0.401,-0.483 0.382,-0.496C0.363,-0.508 0.341,-0.517 0.316,-0.522C0.291,-0.527 0.264,-0.529 0.235,-0.529C0.212,-0.529 0.19,-0.526 0.167,-0.521C0.143,-0.515 0.123,-0.506 0.105,-0.495C0.086,-0.483 0.071,-0.468 0.06,-0.449C0.048,-0.43 0.042,-0.408 0.042,-0.382C0.042,-0.349 0.05,-0.323 0.067,-0.304C0.084,-0.285 0.105,-0.271 0.13,-0.261C0.155,-0.25 0.182,-0.242 0.211,-0.237C0.24,-0.231 0.268,-0.225 0.293,-0.218C0.318,-0.211 0.338,-0.201 0.355,-0.19C0.372,-0.179 0.38,-0.162 0.38,-0.14C0.38,-0.124 0.376,-0.111 0.368,-0.101C0.36,-0.09 0.35,-0.082 0.338,-0.077C0.325,-0.072 0.312,-0.068 0.297,-0.066C0.282,-0.064 0.268,-0.063 0.255,-0.063C0.238,-0.063 0.221,-0.065 0.205,-0.068C0.188,-0.071 0.173,-0.077 0.161,-0.085C0.148,-0.092 0.137,-0.102 0.129,-0.116C0.121,-0.129 0.117,-0.144 0.116,-0.163Z" style="fill-rule:nonzero;"/>
        </g>
        <g transform="matrix(58.3333,0,0,58.3333,367.505,231.609)">
            <path d="M0.116,-0.163L0.031,-0.163C0.032,-0.131 0.039,-0.104 0.051,-0.082C0.063,-0.059 0.079,-0.041 0.099,-0.028C0.119,-0.014 0.142,-0.004 0.168,0.002C0.194,0.008 0.221,0.011 0.25,0.011C0.276,0.011 0.302,0.008 0.329,0.004C0.355,-0.002 0.379,-0.01 0.4,-0.023C0.421,-0.036 0.438,-0.052 0.451,-0.073C0.464,-0.094 0.47,-0.12 0.47,-0.151C0.47,-0.176 0.465,-0.196 0.456,-0.213C0.446,-0.23 0.433,-0.244 0.418,-0.255C0.402,-0.266 0.384,-0.274 0.364,-0.281C0.343,-0.288 0.322,-0.293 0.301,-0.298C0.281,-0.303 0.261,-0.307 0.241,-0.312C0.221,-0.316 0.203,-0.321 0.187,-0.328C0.171,-0.334 0.158,-0.342 0.148,-0.352C0.137,-0.361 0.132,-0.373 0.132,-0.388C0.132,-0.401 0.135,-0.412 0.142,-0.421C0.149,-0.429 0.157,-0.436 0.168,-0.441C0.179,-0.446 0.191,-0.449 0.204,-0.451C0.217,-0.453 0.229,-0.454 0.242,-0.454C0.256,-0.454 0.27,-0.452 0.284,-0.45C0.297,-0.447 0.31,-0.442 0.321,-0.435C0.332,-0.428 0.342,-0.42 0.349,-0.409C0.356,-0.398 0.361,-0.384 0.362,-0.367L0.447,-0.367C0.445,-0.398 0.438,-0.425 0.427,-0.446C0.416,-0.467 0.401,-0.483 0.382,-0.496C0.363,-0.508 0.341,-0.517 0.316,-0.522C0.291,-0.527 0.264,-0.529 0.235,-0.529C0.212,-0.529 0.19,-0.526 0.167,-0.521C0.143,-0.515 0.123,-0.506 0.105,-0.495C0.086,-0.483 0.071,-0.468 0.06,-0.449C0.048,-0.43 0.042,-0.408 0.042,-0.382C0.042,-0.349 0.05,-0.323 0.067,-0.304C0.084,-0.285 0.105,-0.271 0.13,-0.261C0.155,-0.25 0.182,-0.242 0.211,-0.237C0.24,-0.231 0.268,-0.225 0.293,-0.218C0.318,-0.211 0.338,-0.201 0.355,-0.19C0.372,-0.179 0.38,-0.162 0.38,-0.14C0.38,-0.124 0.376,-0.111 0.368,-0.101C0.36,-0.09 0.35,-0.082 0.338,-0.077C0.325,-0.072 0.312,-0.068 0.297,-0.066C0.282,-0.064 0.268,-0.063 0.255,-0.063C0.238,-0.063 0.221,-0.065 0.205,-0.068C0.188,-0.071 0.173,-0.077 0.161,-0.085C0.148,-0.092 0.137,-0.102 0.129,-0.116C0.121,-0.129 0.117,-0.144 0.116,-0.163Z" style="fill-rule:nonzero;"/>
        </g>
        <g transform="matrix(58.3333,0,0,58.3333,396.672,231.609)">
            <path d="M0.423,-0.308L0.126,-0.308C0.127,-0.328 0.132,-0.347 0.139,-0.365C0.146,-0.382 0.156,-0.398 0.169,-0.411C0.182,-0.424 0.197,-0.435 0.215,-0.443C0.232,-0.45 0.252,-0.454 0.274,-0.454C0.295,-0.454 0.315,-0.45 0.333,-0.443C0.35,-0.435 0.366,-0.425 0.379,-0.412C0.392,-0.399 0.402,-0.383 0.41,-0.365C0.417,-0.347 0.422,-0.328 0.423,-0.308ZM0.505,-0.164L0.421,-0.164C0.414,-0.13 0.399,-0.105 0.376,-0.088C0.353,-0.071 0.323,-0.063 0.287,-0.063C0.259,-0.063 0.235,-0.068 0.214,-0.077C0.193,-0.086 0.176,-0.099 0.163,-0.115C0.15,-0.13 0.14,-0.148 0.134,-0.169C0.128,-0.189 0.125,-0.21 0.126,-0.233L0.513,-0.233C0.514,-0.264 0.511,-0.297 0.505,-0.332C0.498,-0.367 0.485,-0.399 0.467,-0.428C0.448,-0.457 0.424,-0.482 0.394,-0.501C0.363,-0.52 0.325,-0.529 0.279,-0.529C0.244,-0.529 0.211,-0.522 0.182,-0.509C0.152,-0.496 0.126,-0.477 0.105,-0.453C0.083,-0.429 0.066,-0.401 0.054,-0.368C0.042,-0.335 0.036,-0.299 0.036,-0.26C0.037,-0.221 0.043,-0.184 0.054,-0.151C0.064,-0.118 0.079,-0.089 0.1,-0.065C0.121,-0.041 0.146,-0.022 0.177,-0.009C0.207,0.004 0.243,0.011 0.284,0.011C0.343,0.011 0.391,-0.004 0.43,-0.033C0.469,-0.062 0.494,-0.106 0.505,-0.164Z" style="fill-rule:nonzero;"/>
        </g>
        <g transform="matrix(58.3333,0,0,58.3333,427.997,231.609)">
            <path d="M0.064,-0.517L0.064,0L0.149,0L0.149,-0.292C0.149,-0.315 0.152,-0.337 0.159,-0.357C0.165,-0.376 0.174,-0.393 0.187,-0.408C0.2,-0.423 0.216,-0.434 0.235,-0.442C0.254,-0.45 0.276,-0.454 0.302,-0.454C0.335,-0.454 0.36,-0.445 0.379,-0.426C0.398,-0.407 0.407,-0.382 0.407,-0.35L0.407,0L0.492,0L0.492,-0.34C0.492,-0.368 0.489,-0.393 0.484,-0.417C0.478,-0.44 0.468,-0.459 0.454,-0.476C0.44,-0.493 0.422,-0.506 0.399,-0.515C0.376,-0.524 0.348,-0.529 0.314,-0.529C0.237,-0.529 0.181,-0.498 0.146,-0.435L0.144,-0.435L0.144,-0.517L0.064,-0.517Z" style="fill-rule:nonzero;"/>
        </g>
        <g transform="matrix(58.3333,0,0,58.3333,459.847,231.609)">
            <path d="M0.116,-0.163L0.031,-0.163C0.032,-0.131 0.039,-0.104 0.051,-0.082C0.063,-0.059 0.079,-0.041 0.099,-0.028C0.119,-0.014 0.142,-0.004 0.168,0.002C0.194,0.008 0.221,0.011 0.25,0.011C0.276,0.011 0.302,0.008 0.329,0.004C0.355,-0.002 0.379,-0.01 0.4,-0.023C0.421,-0.036 0.438,-0.052 0.451,-0.073C0.464,-0.094 0.47,-0.12 0.47,-0.151C0.47,-0.176 0.465,-0.196 0.456,-0.213C0.446,-0.23 0.433,-0.244 0.418,-0.255C0.402,-0.266 0.384,-0.274 0.364,-0.281C0.343,-0.288 0.322,-0.293 0.301,-0.298C0.281,-0.303 0.261,-0.307 0.241,-0.312C0.221,-0.316 0.203,-0.321 0.187,-0.328C0.171,-0.334 0.158,-0.342 0.148,-0.352C0.137,-0.361 0.132,-0.373 0.132,-0.388C0.132,-0.401 0.135,-0.412 0.142,-0.421C0.149,-0.429 0.157,-0.436 0.168,-0.441C0.179,-0.446 0.191,-0.449 0.204,-0.451C0.217,-0.453 0.229,-0.454 0.242,-0.454C0.256,-0.454 0.27,-0.452 0.284,-0.45C0.297,-0.447 0.31,-0.442 0.321,-0.435C0.332,-0.428 0.342,-0.42 0.349,-0.409C0.356,-0.398 0.361,-0.384 0.362,-0.367L0.447,-0.367C0.445,-0.398 0.438,-0.425 0.427,-0.446C0.416,-0.467 0.401,-0.483 0.382,-0.496C0.363,-0.508 0.341,-0.517 0.316,-0.522C0.291,-0.527 0.264,-0.529 0.235,-0.529C0.212,-0.529 0.19,-0.526 0.167,-0.521C0.143,-0.515 0.123,-0.506 0.105,-0.495C0.086,-0.483 0.071,-0.468 0.06,-0.449C0.048,-0.43 0.042,-0.408 0.042,-0.382C0.042,-0.349 0.05,-0.323 0.067,-0.304C0.084,-0.285 0.105,-0.271 0.13,-0.261C0.155,-0.25 0.182,-0.242 0.211,-0.237C0.24,-0.231 0.268,-0.225 0.293,-0.218C0.318,-0.211 0.338,-0.201 0.355,-0.19C0.372,-0.179 0.38,-0.162 0.38,-0.14C0.38,-0.124 0.376,-0.111 0.368,-0.101C0.36,-0.09 0.35,-0.082 0.338,-0.077C0.325,-0.072 0.312,-0.068 0.297,-0.066C0.282,-0.064 0.268,-0.063 0.255,-0.063C0.238,-0.063 0.221,-0.065 0.205,-0.068C0.188,-0.071 0.173,-0.077 0.161,-0.085C0.148,-0.092 0.137,-0.102 0.129,-0.116C0.121,-0.129 0.117,-0.144 0.116,-0.163Z" style="fill-rule:nonzero;"/>
        </g>
        <g transform="matrix(58.3333,0,0,58.3333,489.013,231.609)">
            <path d="M0.415,-0.351L0.503,-0.351C0.5,-0.382 0.492,-0.408 0.479,-0.431C0.466,-0.453 0.45,-0.471 0.431,-0.486C0.411,-0.501 0.388,-0.511 0.363,-0.519C0.337,-0.526 0.309,-0.529 0.28,-0.529C0.239,-0.529 0.204,-0.522 0.173,-0.508C0.142,-0.493 0.117,-0.474 0.097,-0.449C0.076,-0.424 0.061,-0.394 0.051,-0.361C0.041,-0.327 0.036,-0.291 0.036,-0.252C0.036,-0.213 0.041,-0.178 0.052,-0.146C0.062,-0.113 0.077,-0.085 0.098,-0.062C0.118,-0.039 0.143,-0.021 0.174,-0.008C0.204,0.005 0.239,0.011 0.278,0.011C0.344,0.011 0.396,-0.006 0.435,-0.041C0.473,-0.076 0.497,-0.125 0.506,-0.189L0.419,-0.189C0.414,-0.149 0.399,-0.118 0.376,-0.096C0.352,-0.074 0.319,-0.063 0.277,-0.063C0.25,-0.063 0.227,-0.068 0.208,-0.079C0.189,-0.09 0.173,-0.104 0.161,-0.122C0.149,-0.139 0.14,-0.159 0.135,-0.182C0.129,-0.205 0.126,-0.228 0.126,-0.252C0.126,-0.278 0.129,-0.303 0.134,-0.328C0.139,-0.352 0.148,-0.373 0.161,-0.392C0.173,-0.411 0.189,-0.426 0.21,-0.437C0.231,-0.448 0.256,-0.454 0.287,-0.454C0.323,-0.454 0.352,-0.445 0.373,-0.427C0.394,-0.409 0.408,-0.384 0.415,-0.351Z" style="fill-rule:nonzero;"/>
        </g>
        <g transform="matrix(58.3333,0,0,58.3333,520.338,231.609)">
            <path d="M0.064,-0.714L0.064,0L0.149,0L0.149,-0.292C0.149,-0.315 0.152,-0.337 0.159,-0.357C0.165,-0.376 0.174,-0.393 0.187,-0.408C0.2,-0.423 0.216,-0.434 0.235,-0.442C0.254,-0.45 0.276,-0.454 0.302,-0.454C0.335,-0.454 0.36,-0.445 0.379,-0.426C0.398,-0.407 0.407,-0.382 0.407,-0.35L0.407,0L0.492,0L0.492,-0.34C0.492,-0.368 0.489,-0.393 0.484,-0.417C0.478,-0.44 0.468,-0.459 0.454,-0.476C0.44,-0.493 0.422,-0.506 0.399,-0.515C0.376,-0.524 0.348,-0.529 0.314,-0.529C0.299,-0.529 0.283,-0.527 0.267,-0.524C0.25,-0.521 0.235,-0.516 0.22,-0.509C0.205,-0.502 0.191,-0.493 0.179,-0.482C0.167,-0.47 0.158,-0.457 0.151,-0.441L0.149,-0.441L0.149,-0.714L0.064,-0.714Z" style="fill-rule:nonzero;"/>
        </g>
        <g transform="matrix(58.3333,0,0,58.3333,552.772,231.609)">
            <path d="M0.522,-0.002C0.507,0.007 0.487,0.011 0.461,0.011C0.439,0.011 0.422,0.005 0.409,-0.008C0.396,-0.02 0.389,-0.04 0.389,-0.068C0.366,-0.04 0.338,-0.02 0.308,-0.008C0.277,0.005 0.243,0.011 0.207,0.011C0.184,0.011 0.162,0.008 0.141,0.003C0.12,-0.002 0.101,-0.011 0.086,-0.022C0.071,-0.033 0.058,-0.048 0.05,-0.067C0.041,-0.085 0.036,-0.107 0.036,-0.133C0.036,-0.162 0.041,-0.186 0.051,-0.205C0.061,-0.224 0.074,-0.239 0.091,-0.251C0.107,-0.262 0.126,-0.271 0.147,-0.277C0.167,-0.283 0.189,-0.288 0.211,-0.292C0.234,-0.297 0.257,-0.3 0.278,-0.303C0.299,-0.305 0.317,-0.308 0.333,-0.313C0.349,-0.317 0.362,-0.323 0.371,-0.332C0.38,-0.34 0.385,-0.352 0.385,-0.368C0.385,-0.387 0.382,-0.402 0.375,-0.413C0.368,-0.424 0.359,-0.433 0.348,-0.439C0.337,-0.445 0.324,-0.449 0.311,-0.451C0.297,-0.453 0.283,-0.454 0.27,-0.454C0.234,-0.454 0.204,-0.447 0.18,-0.434C0.156,-0.42 0.143,-0.394 0.141,-0.356L0.056,-0.356C0.057,-0.388 0.064,-0.415 0.076,-0.437C0.088,-0.459 0.104,-0.477 0.124,-0.491C0.144,-0.504 0.167,-0.514 0.193,-0.52C0.218,-0.526 0.246,-0.529 0.275,-0.529C0.298,-0.529 0.322,-0.527 0.345,-0.524C0.368,-0.521 0.388,-0.514 0.407,-0.504C0.426,-0.493 0.441,-0.479 0.452,-0.46C0.463,-0.441 0.469,-0.417 0.469,-0.387L0.469,-0.121C0.469,-0.101 0.47,-0.086 0.473,-0.077C0.475,-0.068 0.483,-0.063 0.496,-0.063C0.503,-0.063 0.512,-0.065 0.522,-0.068L0.522,-0.002ZM0.384,-0.267C0.373,-0.259 0.359,-0.253 0.342,-0.25C0.325,-0.246 0.307,-0.243 0.288,-0.241C0.269,-0.238 0.249,-0.236 0.23,-0.233C0.211,-0.23 0.193,-0.225 0.178,-0.218C0.163,-0.211 0.15,-0.202 0.141,-0.19C0.131,-0.177 0.126,-0.16 0.126,-0.139C0.126,-0.125 0.129,-0.113 0.135,-0.104C0.14,-0.094 0.148,-0.086 0.157,-0.08C0.166,-0.074 0.176,-0.07 0.188,-0.067C0.2,-0.064 0.213,-0.063 0.226,-0.063C0.254,-0.063 0.278,-0.067 0.298,-0.075C0.318,-0.082 0.334,-0.092 0.347,-0.104C0.36,-0.115 0.369,-0.128 0.375,-0.142C0.381,-0.155 0.384,-0.168 0.384,-0.18L0.384,-0.267Z" style="fill-rule:nonzero;"/>
        </g>
        <g transform="matrix(58.3333,0,0,58.3333,584.097,231.609)">
            <path d="M0.099,-0.442L0.099,0L0.184,0L0.184,-0.442L0.284,-0.442L0.284,-0.517L0.184,-0.517L0.184,-0.589C0.184,-0.612 0.19,-0.627 0.201,-0.635C0.212,-0.643 0.228,-0.647 0.249,-0.647C0.256,-0.647 0.264,-0.647 0.273,-0.646C0.282,-0.645 0.29,-0.643 0.297,-0.64L0.297,-0.714C0.289,-0.717 0.28,-0.719 0.27,-0.72C0.259,-0.721 0.25,-0.722 0.242,-0.722C0.195,-0.722 0.16,-0.711 0.136,-0.69C0.111,-0.668 0.099,-0.636 0.099,-0.594L0.099,-0.517L0.012,-0.517L0.012,-0.442L0.099,-0.442Z" style="fill-rule:nonzero;"/>
        </g>
        <g transform="matrix(58.3333,0,0,58.3333,601.363,231.609)">
            <path d="M0.182,-0.517L0.182,-0.672L0.097,-0.672L0.097,-0.517L0.009,-0.517L0.009,-0.442L0.097,-0.442L0.097,-0.113C0.097,-0.089 0.099,-0.07 0.104,-0.055C0.109,-0.04 0.116,-0.029 0.126,-0.021C0.135,-0.013 0.148,-0.008 0.164,-0.005C0.179,-0.002 0.198,0 0.22,0L0.285,0L0.285,-0.075L0.246,-0.075C0.233,-0.075 0.222,-0.076 0.214,-0.077C0.205,-0.078 0.199,-0.08 0.194,-0.083C0.189,-0.086 0.186,-0.091 0.185,-0.097C0.183,-0.103 0.182,-0.111 0.182,-0.121L0.182,-0.442L0.285,-0.442L0.285,-0.517L0.182,-0.517Z" style="fill-rule:nonzero;"/>
        </g>
    </g>
</svg>
