<?xml version="1.0" encoding="UTF-8" standalone="no"?>
<!DOCTYPE svg PUBLIC "-//W3C//DTD SVG 1.1//EN" "http://www.w3.org/Graphics/SVG/1.1/DTD/svg11.dtd">
<svg width="100%" height="100%" viewBox="0 0 1694 196" version="1.1" xmlns="http://www.w3.org/2000/svg" xmlns:xlink="http://www.w3.org/1999/xlink" xml:space="preserve" xmlns:serif="http://www.serif.com/" style="fill-rule:evenodd;clip-rule:evenodd;stroke-linejoin:round;stroke-miterlimit:2;">
    <g transform="matrix(1,0,0,1,-2112,-850)">
        <g id="ATW-Text-TUD-2-Lines-EN" serif:id="ATW Text TUD 2 Lines EN" transform="matrix(1.6932,0,0,0.3904,2112.39,850)">
            <rect x="0" y="0" width="1000" height="500" style="fill:none;"/>
            <clipPath id="_clip1">
                <rect x="0" y="0" width="1000" height="500"/>
            </clipPath>
            <g clip-path="url(#_clip1)">
                <g transform="matrix(1.36566,0,0,5.92297,-3135.02,-2400.55)">
                    <g transform="matrix(50,0,0,50,2295.61,442.195)">
                        <path d="M0,0L0.104,0L0.16,-0.157L0.493,-0.157L0.55,0L0.66,0L0.387,-0.725L0.269,-0.725L0,0ZM0.325,-0.622L0.461,-0.244L0.191,-0.244L0.325,-0.622Z" style="fill-rule:nonzero;"/>
                    </g>
                    <g transform="matrix(50,0,0,50,2329.11,442.195)">
                        <path d="M0.34,-0.54C0.33,-0.541 0.322,-0.541 0.313,-0.541C0.243,-0.539 0.188,-0.505 0.161,-0.444L0.161,-0.538L0.072,-0.538L0.072,0L0.163,0L0.163,-0.282C0.163,-0.4 0.205,-0.447 0.289,-0.447C0.304,-0.447 0.321,-0.445 0.34,-0.443L0.34,-0.54Z" style="fill-rule:nonzero;"/>
                    </g>
                    <g transform="matrix(50,0,0,50,2345.86,442.195)">
                        <path d="M0.295,-0.547C0.136,-0.547 0.035,-0.428 0.035,-0.268C0.035,-0.104 0.132,0.013 0.286,0.013C0.411,0.013 0.508,-0.074 0.526,-0.175L0.432,-0.175C0.419,-0.118 0.365,-0.067 0.289,-0.067C0.209,-0.067 0.134,-0.132 0.134,-0.269C0.134,-0.404 0.208,-0.467 0.289,-0.467C0.359,-0.467 0.415,-0.422 0.428,-0.358L0.52,-0.358C0.508,-0.449 0.425,-0.547 0.295,-0.547Z" style="fill-rule:nonzero;"/>
                    </g>
                    <g transform="matrix(50,0,0,50,2373.71,442.195)">
                        <path d="M0.163,-0.725L0.072,-0.725L0.072,0L0.163,0L0.163,-0.292C0.163,-0.407 0.217,-0.468 0.305,-0.468C0.409,-0.468 0.423,-0.396 0.423,-0.313L0.423,0L0.514,0L0.514,-0.34C0.514,-0.463 0.467,-0.547 0.337,-0.547C0.246,-0.547 0.194,-0.508 0.163,-0.457L0.163,-0.725Z" style="fill-rule:nonzero;"/>
                    </g>
                    <g transform="matrix(50,0,0,50,2401.61,442.195)">
                        <path d="M0.072,-0.538L0.072,0L0.163,0L0.163,-0.538L0.072,-0.538ZM0.072,-0.725L0.072,-0.615L0.163,-0.615L0.163,-0.725L0.072,-0.725Z" style="fill-rule:nonzero;"/>
                    </g>
                    <g transform="matrix(50,0,0,50,2413.86,442.195)">
                        <path d="M0.098,-0.538L0.013,-0.538L0.013,-0.465L0.098,-0.465L0.098,-0.135C0.098,-0.023 0.122,0 0.225,0L0.291,0L0.291,-0.076L0.245,-0.076C0.193,-0.076 0.189,-0.09 0.189,-0.146L0.189,-0.465L0.291,-0.465L0.291,-0.538L0.189,-0.538L0.189,-0.673L0.098,-0.673L0.098,-0.538Z" style="fill-rule:nonzero;"/>
                    </g>
                    <g transform="matrix(50,0,0,50,2429.36,442.195)">
                        <path d="M0.547,-0.239C0.559,-0.409 0.46,-0.547 0.296,-0.547C0.149,-0.547 0.035,-0.438 0.035,-0.268C0.035,-0.109 0.129,0.013 0.299,0.013C0.43,0.013 0.515,-0.063 0.54,-0.156L0.446,-0.156C0.423,-0.103 0.379,-0.067 0.299,-0.067C0.219,-0.067 0.137,-0.123 0.133,-0.239L0.547,-0.239ZM0.296,-0.469C0.392,-0.469 0.449,-0.393 0.451,-0.317L0.134,-0.317C0.142,-0.425 0.215,-0.469 0.296,-0.469Z" style="fill-rule:nonzero;"/>
                    </g>
                    <g transform="matrix(50,0,0,50,2458.66,442.195)">
                        <path d="M0.295,-0.547C0.136,-0.547 0.035,-0.428 0.035,-0.268C0.035,-0.104 0.132,0.013 0.286,0.013C0.411,0.013 0.508,-0.074 0.526,-0.175L0.432,-0.175C0.419,-0.118 0.365,-0.067 0.289,-0.067C0.209,-0.067 0.134,-0.132 0.134,-0.269C0.134,-0.404 0.208,-0.467 0.289,-0.467C0.359,-0.467 0.415,-0.422 0.428,-0.358L0.52,-0.358C0.508,-0.449 0.425,-0.547 0.295,-0.547Z" style="fill-rule:nonzero;"/>
                    </g>
                    <g transform="matrix(50,0,0,50,2486.51,442.195)">
                        <path d="M0.098,-0.538L0.013,-0.538L0.013,-0.465L0.098,-0.465L0.098,-0.135C0.098,-0.023 0.122,0 0.225,0L0.291,0L0.291,-0.076L0.245,-0.076C0.193,-0.076 0.189,-0.09 0.189,-0.146L0.189,-0.465L0.291,-0.465L0.291,-0.538L0.189,-0.538L0.189,-0.673L0.098,-0.673L0.098,-0.538Z" style="fill-rule:nonzero;"/>
                    </g>
                    <g transform="matrix(50,0,0,50,2502.76,442.195)">
                        <path d="M0.405,0L0.496,0L0.496,-0.538L0.405,-0.538L0.405,-0.242C0.405,-0.127 0.354,-0.066 0.268,-0.066C0.169,-0.066 0.155,-0.138 0.155,-0.221L0.155,-0.538L0.064,-0.538L0.064,-0.194C0.064,-0.071 0.111,0.013 0.236,0.013C0.325,0.013 0.374,-0.026 0.405,-0.077L0.405,0Z" style="fill-rule:nonzero;"/>
                    </g>
                    <g transform="matrix(50,0,0,50,2529.66,442.195)">
                        <path d="M0.34,-0.54C0.33,-0.541 0.322,-0.541 0.313,-0.541C0.243,-0.539 0.188,-0.505 0.161,-0.444L0.161,-0.538L0.072,-0.538L0.072,0L0.163,0L0.163,-0.282C0.163,-0.4 0.205,-0.447 0.289,-0.447C0.304,-0.447 0.321,-0.445 0.34,-0.443L0.34,-0.54Z" style="fill-rule:nonzero;"/>
                    </g>
                    <g transform="matrix(50,0,0,50,2546.41,442.195)">
                        <path d="M0.547,-0.239C0.559,-0.409 0.46,-0.547 0.296,-0.547C0.149,-0.547 0.035,-0.438 0.035,-0.268C0.035,-0.109 0.129,0.013 0.299,0.013C0.43,0.013 0.515,-0.063 0.54,-0.156L0.446,-0.156C0.423,-0.103 0.379,-0.067 0.299,-0.067C0.219,-0.067 0.137,-0.123 0.133,-0.239L0.547,-0.239ZM0.296,-0.469C0.392,-0.469 0.449,-0.393 0.451,-0.317L0.134,-0.317C0.142,-0.425 0.215,-0.469 0.296,-0.469Z" style="fill-rule:nonzero;"/>
                    </g>
                    <g transform="matrix(50,0,0,50,2587.31,442.195)">
                        <path d="M0.236,0L0.338,0L0.338,-0.637L0.574,-0.637L0.574,-0.725L0,-0.725L0,-0.637L0.236,-0.637L0.236,0Z" style="fill-rule:nonzero;"/>
                    </g>
                    <g transform="matrix(50,0,0,50,2615.51,442.195)">
                        <path d="M0.163,-0.725L0.072,-0.725L0.072,0L0.163,0L0.163,-0.292C0.163,-0.407 0.217,-0.468 0.305,-0.468C0.409,-0.468 0.423,-0.396 0.423,-0.313L0.423,0L0.514,0L0.514,-0.34C0.514,-0.463 0.467,-0.547 0.337,-0.547C0.246,-0.547 0.194,-0.508 0.163,-0.457L0.163,-0.725Z" style="fill-rule:nonzero;"/>
                    </g>
                    <g transform="matrix(50,0,0,50,2642.91,442.195)">
                        <path d="M0.547,-0.239C0.559,-0.409 0.46,-0.547 0.296,-0.547C0.149,-0.547 0.035,-0.438 0.035,-0.268C0.035,-0.109 0.129,0.013 0.299,0.013C0.43,0.013 0.515,-0.063 0.54,-0.156L0.446,-0.156C0.423,-0.103 0.379,-0.067 0.299,-0.067C0.219,-0.067 0.137,-0.123 0.133,-0.239L0.547,-0.239ZM0.296,-0.469C0.392,-0.469 0.449,-0.393 0.451,-0.317L0.134,-0.317C0.142,-0.425 0.215,-0.469 0.296,-0.469Z" style="fill-rule:nonzero;"/>
                    </g>
                    <g transform="matrix(50,0,0,50,2672.21,442.195)">
                        <path d="M0.134,-0.267C0.134,-0.414 0.213,-0.467 0.295,-0.467C0.377,-0.467 0.456,-0.41 0.456,-0.267C0.456,-0.129 0.377,-0.067 0.295,-0.067C0.213,-0.067 0.134,-0.124 0.134,-0.267ZM0.295,-0.547C0.17,-0.547 0.037,-0.462 0.037,-0.267C0.037,-0.072 0.17,0.013 0.295,0.013C0.42,0.013 0.553,-0.072 0.553,-0.267C0.553,-0.462 0.42,-0.547 0.295,-0.547Z" style="fill-rule:nonzero;"/>
                    </g>
                    <g transform="matrix(50,0,0,50,2700.71,442.195)">
                        <path d="M0.34,-0.54C0.33,-0.541 0.322,-0.541 0.313,-0.541C0.243,-0.539 0.188,-0.505 0.161,-0.444L0.161,-0.538L0.072,-0.538L0.072,0L0.163,0L0.163,-0.282C0.163,-0.4 0.205,-0.447 0.289,-0.447C0.304,-0.447 0.321,-0.445 0.34,-0.443L0.34,-0.54Z" style="fill-rule:nonzero;"/>
                    </g>
                    <g transform="matrix(50,0,0,50,2719.46,442.195)">
                        <path d="M0.371,-0.538L0.238,-0.123L0.101,-0.538L0,-0.538L0.194,0L0.19,0.011C0.166,0.095 0.137,0.099 0.077,0.099L0.04,0.099L0.04,0.175L0.087,0.175C0.207,0.175 0.235,0.14 0.274,0.023L0.466,-0.538L0.371,-0.538Z" style="fill-rule:nonzero;"/>
                    </g>
                    <g transform="matrix(50,0,0,50,2754.61,442.195)">
                        <path d="M0.411,-0.225C0.411,-0.098 0.33,-0.059 0.245,-0.059C0.18,-0.059 0.141,-0.093 0.141,-0.144C0.141,-0.218 0.246,-0.242 0.411,-0.259L0.411,-0.225ZM0.225,0.013C0.32,0.013 0.376,-0.019 0.409,-0.074C0.41,-0.042 0.413,-0.02 0.416,0L0.508,0C0.498,-0.051 0.493,-0.113 0.494,-0.203L0.495,-0.327C0.496,-0.478 0.429,-0.549 0.281,-0.549C0.176,-0.549 0.074,-0.484 0.065,-0.368L0.159,-0.368C0.163,-0.434 0.207,-0.475 0.282,-0.475C0.349,-0.475 0.404,-0.442 0.404,-0.344L0.404,-0.331C0.183,-0.306 0.04,-0.269 0.04,-0.142C0.04,-0.043 0.124,0.013 0.225,0.013Z" style="fill-rule:nonzero;"/>
                    </g>
                    <g transform="matrix(50,0,0,50,2780.56,442.195)">
                        <path d="M0.163,-0.538L0.072,-0.538L0.072,0L0.163,0L0.163,-0.292C0.163,-0.407 0.217,-0.468 0.305,-0.468C0.409,-0.468 0.423,-0.396 0.423,-0.313L0.423,0L0.514,0L0.514,-0.34C0.514,-0.463 0.467,-0.547 0.337,-0.547C0.246,-0.547 0.194,-0.508 0.163,-0.457L0.163,-0.538Z" style="fill-rule:nonzero;"/>
                    </g>
                    <g transform="matrix(50,0,0,50,2807.96,442.195)">
                        <path d="M0.441,-0.453C0.408,-0.51 0.351,-0.547 0.265,-0.547C0.142,-0.547 0.035,-0.444 0.035,-0.267C0.035,-0.089 0.142,0.013 0.265,0.013C0.351,0.013 0.408,-0.024 0.441,-0.081L0.441,0L0.532,0L0.532,-0.725L0.441,-0.725L0.441,-0.453ZM0.445,-0.267C0.445,-0.125 0.369,-0.065 0.288,-0.065C0.195,-0.065 0.134,-0.139 0.134,-0.267C0.134,-0.395 0.195,-0.469 0.288,-0.469C0.369,-0.469 0.445,-0.409 0.445,-0.267Z" style="fill-rule:nonzero;"/>
                    </g>
                    <g transform="matrix(50,0,0,50,2850.01,442.195)">
                        <path d="M0.056,-0.54C0.056,-0.419 0.156,-0.364 0.255,-0.342L0.345,-0.323C0.436,-0.303 0.501,-0.271 0.501,-0.195C0.501,-0.124 0.439,-0.073 0.332,-0.073C0.221,-0.073 0.151,-0.125 0.132,-0.225L0.032,-0.225C0.051,-0.08 0.159,0.013 0.33,0.013C0.474,0.013 0.606,-0.062 0.606,-0.204C0.606,-0.35 0.473,-0.392 0.362,-0.416L0.278,-0.435C0.211,-0.45 0.16,-0.482 0.16,-0.546C0.16,-0.627 0.258,-0.652 0.314,-0.652C0.387,-0.652 0.469,-0.624 0.494,-0.54L0.593,-0.54C0.565,-0.68 0.448,-0.738 0.318,-0.738C0.201,-0.738 0.056,-0.678 0.056,-0.54Z" style="fill-rule:nonzero;"/>
                    </g>
                    <g transform="matrix(50,0,0,50,2881.81,442.195)">
                        <path d="M0.295,-0.547C0.136,-0.547 0.035,-0.428 0.035,-0.268C0.035,-0.104 0.132,0.013 0.286,0.013C0.411,0.013 0.508,-0.074 0.526,-0.175L0.432,-0.175C0.419,-0.118 0.365,-0.067 0.289,-0.067C0.209,-0.067 0.134,-0.132 0.134,-0.269C0.134,-0.404 0.208,-0.467 0.289,-0.467C0.359,-0.467 0.415,-0.422 0.428,-0.358L0.52,-0.358C0.508,-0.449 0.425,-0.547 0.295,-0.547Z" style="fill-rule:nonzero;"/>
                    </g>
                    <g transform="matrix(50,0,0,50,2908.16,442.195)">
                        <path d="M0.072,-0.538L0.072,0L0.163,0L0.163,-0.538L0.072,-0.538ZM0.072,-0.725L0.072,-0.615L0.163,-0.615L0.163,-0.725L0.072,-0.725Z" style="fill-rule:nonzero;"/>
                    </g>
                    <g transform="matrix(50,0,0,50,2918.41,442.195)">
                        <path d="M0.547,-0.239C0.559,-0.409 0.46,-0.547 0.296,-0.547C0.149,-0.547 0.035,-0.438 0.035,-0.268C0.035,-0.109 0.129,0.013 0.299,0.013C0.43,0.013 0.515,-0.063 0.54,-0.156L0.446,-0.156C0.423,-0.103 0.379,-0.067 0.299,-0.067C0.219,-0.067 0.137,-0.123 0.133,-0.239L0.547,-0.239ZM0.296,-0.469C0.392,-0.469 0.449,-0.393 0.451,-0.317L0.134,-0.317C0.142,-0.425 0.215,-0.469 0.296,-0.469Z" style="fill-rule:nonzero;"/>
                    </g>
                    <g transform="matrix(50,0,0,50,2945.96,442.195)">
                        <path d="M0.163,-0.538L0.072,-0.538L0.072,0L0.163,0L0.163,-0.292C0.163,-0.407 0.217,-0.468 0.305,-0.468C0.409,-0.468 0.423,-0.396 0.423,-0.313L0.423,0L0.514,0L0.514,-0.34C0.514,-0.463 0.467,-0.547 0.337,-0.547C0.246,-0.547 0.194,-0.508 0.163,-0.457L0.163,-0.538Z" style="fill-rule:nonzero;"/>
                    </g>
                    <g transform="matrix(50,0,0,50,2973.36,442.195)">
                        <path d="M0.295,-0.547C0.136,-0.547 0.035,-0.428 0.035,-0.268C0.035,-0.104 0.132,0.013 0.286,0.013C0.411,0.013 0.508,-0.074 0.526,-0.175L0.432,-0.175C0.419,-0.118 0.365,-0.067 0.289,-0.067C0.209,-0.067 0.134,-0.132 0.134,-0.269C0.134,-0.404 0.208,-0.467 0.289,-0.467C0.359,-0.467 0.415,-0.422 0.428,-0.358L0.52,-0.358C0.508,-0.449 0.425,-0.547 0.295,-0.547Z" style="fill-rule:nonzero;"/>
                    </g>
                    <g transform="matrix(50,0,0,50,3000.46,442.195)">
                        <path d="M0.547,-0.239C0.559,-0.409 0.46,-0.547 0.296,-0.547C0.149,-0.547 0.035,-0.438 0.035,-0.268C0.035,-0.109 0.129,0.013 0.299,0.013C0.43,0.013 0.515,-0.063 0.54,-0.156L0.446,-0.156C0.423,-0.103 0.379,-0.067 0.299,-0.067C0.219,-0.067 0.137,-0.123 0.133,-0.239L0.547,-0.239ZM0.296,-0.469C0.392,-0.469 0.449,-0.393 0.451,-0.317L0.134,-0.317C0.142,-0.425 0.215,-0.469 0.296,-0.469Z" style="fill-rule:nonzero;"/>
                    </g>
                    <g transform="matrix(50,0,0,50,2295.61,489.045)">
                        <path d="M0.236,0L0.338,0L0.338,-0.637L0.574,-0.637L0.574,-0.725L0,-0.725L0,-0.637L0.236,-0.637L0.236,0Z" style="fill-rule:nonzero;"/>
                    </g>
                    <g transform="matrix(50,0,0,50,2325.31,489.045)">
                        <path d="M0.075,-0.725L0.075,-0.295C0.075,-0.069 0.163,0.013 0.364,0.013C0.575,0.013 0.656,-0.091 0.656,-0.303L0.656,-0.725L0.554,-0.725L0.554,-0.295C0.554,-0.152 0.503,-0.075 0.364,-0.075C0.228,-0.075 0.177,-0.142 0.177,-0.284L0.177,-0.725L0.075,-0.725Z" style="fill-rule:nonzero;"/>
                    </g>
                    <g transform="matrix(50,0,0,50,2373.71,489.045)">
                        <path d="M0.575,-0.363C0.575,-0.116 0.431,-0.086 0.281,-0.086L0.188,-0.086L0.188,-0.639L0.281,-0.639C0.431,-0.639 0.575,-0.609 0.575,-0.363ZM0.086,-0.725L0.086,0L0.284,0C0.514,0 0.679,-0.086 0.679,-0.363C0.679,-0.639 0.514,-0.725 0.284,-0.725L0.086,-0.725Z" style="fill-rule:nonzero;"/>
                    </g>
                    <g transform="matrix(50,0,0,50,2408.56,489.045)">
                        <path d="M0.411,-0.225C0.411,-0.098 0.33,-0.059 0.245,-0.059C0.18,-0.059 0.141,-0.093 0.141,-0.144C0.141,-0.218 0.246,-0.242 0.411,-0.259L0.411,-0.225ZM0.225,0.013C0.32,0.013 0.376,-0.019 0.409,-0.074C0.41,-0.042 0.413,-0.02 0.416,0L0.508,0C0.498,-0.051 0.493,-0.113 0.494,-0.203L0.495,-0.327C0.496,-0.478 0.429,-0.549 0.281,-0.549C0.176,-0.549 0.074,-0.484 0.065,-0.368L0.159,-0.368C0.163,-0.434 0.207,-0.475 0.282,-0.475C0.349,-0.475 0.404,-0.442 0.404,-0.344L0.404,-0.331C0.183,-0.306 0.04,-0.269 0.04,-0.142C0.04,-0.043 0.124,0.013 0.225,0.013Z" style="fill-rule:nonzero;"/>
                    </g>
                    <g transform="matrix(50,0,0,50,2435.51,489.045)">
                        <path d="M0.34,-0.54C0.33,-0.541 0.322,-0.541 0.313,-0.541C0.243,-0.539 0.188,-0.505 0.161,-0.444L0.161,-0.538L0.072,-0.538L0.072,0L0.163,0L0.163,-0.282C0.163,-0.4 0.205,-0.447 0.289,-0.447C0.304,-0.447 0.321,-0.445 0.34,-0.443L0.34,-0.54Z" style="fill-rule:nonzero;"/>
                    </g>
                    <g transform="matrix(50,0,0,50,2453.26,489.045)">
                        <path d="M0.163,-0.292C0.163,-0.407 0.215,-0.468 0.293,-0.468C0.392,-0.468 0.408,-0.396 0.408,-0.313L0.408,0L0.499,0L0.499,-0.292C0.499,-0.407 0.551,-0.468 0.629,-0.468C0.728,-0.468 0.744,-0.396 0.744,-0.313L0.744,0L0.835,0L0.835,-0.34C0.835,-0.463 0.786,-0.547 0.661,-0.547C0.586,-0.547 0.523,-0.518 0.48,-0.452C0.456,-0.511 0.407,-0.547 0.325,-0.547C0.244,-0.547 0.194,-0.508 0.163,-0.457L0.163,-0.538L0.072,-0.538L0.072,0L0.163,0L0.163,-0.292Z" style="fill-rule:nonzero;"/>
                    </g>
                    <g transform="matrix(50,0,0,50,2497.21,489.045)">
                        <path d="M0.475,-0.381C0.458,-0.483 0.379,-0.548 0.263,-0.548C0.144,-0.548 0.048,-0.493 0.048,-0.398C0.048,-0.298 0.128,-0.264 0.201,-0.249L0.281,-0.233C0.339,-0.221 0.39,-0.198 0.39,-0.144C0.39,-0.094 0.334,-0.064 0.265,-0.064C0.185,-0.064 0.142,-0.105 0.128,-0.174L0.032,-0.174C0.042,-0.08 0.122,0.013 0.263,0.013C0.386,0.013 0.482,-0.048 0.482,-0.154C0.482,-0.258 0.396,-0.295 0.298,-0.314L0.222,-0.329C0.17,-0.339 0.14,-0.359 0.14,-0.402C0.14,-0.451 0.2,-0.47 0.253,-0.47C0.316,-0.47 0.366,-0.445 0.38,-0.381L0.475,-0.381Z" style="fill-rule:nonzero;"/>
                    </g>
                    <g transform="matrix(50,0,0,50,2522.96,489.045)">
                        <path d="M0.098,-0.538L0.013,-0.538L0.013,-0.465L0.098,-0.465L0.098,-0.135C0.098,-0.023 0.122,0 0.225,0L0.291,0L0.291,-0.076L0.245,-0.076C0.193,-0.076 0.189,-0.09 0.189,-0.146L0.189,-0.465L0.291,-0.465L0.291,-0.538L0.189,-0.538L0.189,-0.673L0.098,-0.673L0.098,-0.538Z" style="fill-rule:nonzero;"/>
                    </g>
                    <g transform="matrix(50,0,0,50,2539.21,489.045)">
                        <path d="M0.411,-0.225C0.411,-0.098 0.33,-0.059 0.245,-0.059C0.18,-0.059 0.141,-0.093 0.141,-0.144C0.141,-0.218 0.246,-0.242 0.411,-0.259L0.411,-0.225ZM0.225,0.013C0.32,0.013 0.376,-0.019 0.409,-0.074C0.41,-0.042 0.413,-0.02 0.416,0L0.508,0C0.498,-0.051 0.493,-0.113 0.494,-0.203L0.495,-0.327C0.496,-0.478 0.429,-0.549 0.281,-0.549C0.176,-0.549 0.074,-0.484 0.065,-0.368L0.159,-0.368C0.163,-0.434 0.207,-0.475 0.282,-0.475C0.349,-0.475 0.404,-0.442 0.404,-0.344L0.404,-0.331C0.183,-0.306 0.04,-0.269 0.04,-0.142C0.04,-0.043 0.124,0.013 0.225,0.013Z" style="fill-rule:nonzero;"/>
                    </g>
                    <g transform="matrix(50,0,0,50,2566.16,489.045)">
                        <path d="M0.441,-0.453C0.408,-0.51 0.351,-0.547 0.265,-0.547C0.142,-0.547 0.035,-0.444 0.035,-0.267C0.035,-0.089 0.142,0.013 0.265,0.013C0.351,0.013 0.408,-0.024 0.441,-0.081L0.441,0L0.532,0L0.532,-0.725L0.441,-0.725L0.441,-0.453ZM0.445,-0.267C0.445,-0.125 0.369,-0.065 0.288,-0.065C0.195,-0.065 0.134,-0.139 0.134,-0.267C0.134,-0.395 0.195,-0.469 0.288,-0.469C0.369,-0.469 0.445,-0.409 0.445,-0.267Z" style="fill-rule:nonzero;"/>
                    </g>
                    <g transform="matrix(50,0,0,50,2595.86,489.045)">
                        <path d="M0.098,-0.538L0.013,-0.538L0.013,-0.465L0.098,-0.465L0.098,-0.135C0.098,-0.023 0.122,0 0.225,0L0.291,0L0.291,-0.076L0.245,-0.076C0.193,-0.076 0.189,-0.09 0.189,-0.146L0.189,-0.465L0.291,-0.465L0.291,-0.538L0.189,-0.538L0.189,-0.673L0.098,-0.673L0.098,-0.538Z" style="fill-rule:nonzero;"/>
                    </g>
                </g>
            </g>
        </g>
    </g>
</svg>
