<svg width="100%" height="100%" viewBox="0 0 655 263" version="1.1" xmlns="http://www.w3.org/2000/svg" xmlns:xlink="http://www.w3.org/1999/xlink" xml:space="preserve" xmlns:serif="http://www.serif.com/" style="fill-rule:evenodd;clip-rule:evenodd;stroke-linejoin:round;stroke-miterlimit:2;">
    <g transform="matrix(4.16667,0,0,4.16667,0,0)">
        <path d="M45.825,52.388C45.313,52.176 44.42,51.912 43.491,51.665C43.522,52.179 43.586,52.65 43.675,53.068C44.393,52.878 45.111,52.652 45.825,52.388ZM43.473,51.224C44.624,51.527 45.875,51.891 46.359,52.182C46.768,52.018 47.177,51.842 47.583,51.651C46.851,51.258 45.124,50.712 43.489,50.253C43.471,50.589 43.466,50.913 43.473,51.224ZM46.432,52.606C46.414,52.616 46.396,52.623 46.376,52.628C45.088,53.133 43.783,53.512 42.485,53.78C42.465,53.787 42.444,53.792 42.421,53.793C41.224,54.037 40.033,54.185 38.864,54.251C38.845,54.256 38.824,54.257 38.802,54.255C34.883,54.467 31.223,53.745 28.477,52.512L28.383,52.469C28.356,52.463 28.332,52.451 28.311,52.436C23.64,50.271 21.532,46.433 26.101,43.339C25.632,42.556 25.013,41.829 24.407,41.04C24.213,40.788 24.017,40.526 23.822,40.251C23.46,41.211 23.418,41.829 24.027,42.696C24.097,42.796 24.072,42.897 24.008,42.962L20.75,46.866C20.664,46.968 20.522,46.971 20.433,46.873C4.135,29.013 22.708,1.92 45.142,9.716C45.279,9.763 45.328,9.899 45.253,10.023L41.735,15.853C41.699,15.931 41.62,15.988 41.507,15.967C40.414,15.762 39.745,15.825 39.274,16.278C40.287,16.454 41.332,16.72 42.407,17.086C43.367,16.026 44.385,15.043 45.485,14.164C45.5,14.15 45.516,14.138 45.534,14.128C45.591,14.092 45.65,14.088 45.701,14.105C45.753,14.118 45.8,14.154 45.829,14.214C45.838,14.232 45.846,14.251 45.85,14.271L47.873,20.209C47.894,20.256 47.898,20.309 47.881,20.359C47.864,20.409 47.828,20.448 47.783,20.472C47.717,20.516 47.651,20.559 47.586,20.604C48.002,21.856 50.902,30.576 51.796,32.924C52.076,33.659 52.693,34.997 52.704,35.776C52.715,36.571 52.164,36.938 51.032,37.02C50.469,37.561 50.383,37.758 50.687,38.16C51.291,38.959 50.957,39.32 50.285,39.858C50.937,40.385 50.79,41.335 50.467,41.35C49.996,41.372 49.817,41.519 49.549,41.895C51.616,43.928 49.907,45.662 47.155,46.243C46.284,46.427 45.28,46.512 44.197,46.474C44.195,46.485 44.192,46.496 44.189,46.508C43.817,47.673 43.607,48.796 43.519,49.825C45.365,50.34 47.546,51.02 48.119,51.501C48.139,51.515 48.156,51.532 48.171,51.551C48.214,51.602 48.226,51.66 48.217,51.713C48.211,51.766 48.182,51.818 48.126,51.855C48.109,51.868 48.089,51.878 48.069,51.886C47.527,52.149 46.981,52.389 46.432,52.606ZM27.13,44.626C27.141,44.649 27.148,44.674 27.15,44.7C27.282,45.202 27.341,45.743 27.302,46.343C28.584,45.465 28.267,43.997 27.889,43.304C27.56,43.523 27.225,43.733 26.882,43.933C26.98,44.157 27.063,44.387 27.13,44.626ZM26.795,45.043C25.865,45.633 25.431,46.308 25.356,46.984C25.973,46.908 26.466,46.772 26.858,46.593C26.922,46.028 26.893,45.517 26.795,45.043ZM25.356,47.408C25.385,47.679 25.467,47.946 25.595,48.205C28.534,48.154 30.737,45.226 29.15,42.388C28.851,42.621 28.547,42.848 28.236,43.065C28.827,44.134 29.321,46.951 25.356,47.408ZM25.839,48.616C26.075,48.952 26.384,49.266 26.744,49.545C31.035,48.329 31.928,44.734 30.235,41.482C29.989,41.701 29.738,41.914 29.483,42.121C31.281,45.232 28.934,48.407 25.839,48.616ZM27.184,49.852C27.591,50.107 28.044,50.32 28.517,50.473C33.8,47.801 32.528,42.346 31.321,40.465C31.071,40.713 30.816,40.955 30.558,41.192C32.374,44.579 31.536,48.448 27.184,49.852ZM43.694,28.361C45.54,27.644 47.808,27.304 49.578,27.859C48.785,25.525 47.962,23.064 47.503,21.687C47.486,24.063 46.407,26.304 44.079,27.249C43.992,27.63 43.866,28 43.694,28.361ZM43.021,28.712C43.03,28.688 43.043,28.666 43.062,28.646C43.367,28.146 43.569,27.625 43.685,27.08C43.686,27.057 43.691,27.034 43.7,27.012C43.797,26.521 43.827,26.011 43.798,25.481C43.793,25.458 43.791,25.434 43.794,25.41C43.77,25.027 43.717,24.633 43.639,24.228C43.373,24.533 43.111,24.845 42.854,25.162C42.971,26.518 42.653,27.997 41.22,29.317C41.264,29.739 41.267,30.151 41.232,30.552C42.028,29.971 42.612,29.36 43.021,28.712ZM32.186,41.257C32.308,40.809 32.546,40.41 32.866,40.092C32.718,39.782 32.625,39.466 32.561,39.164C32.255,39.504 31.942,39.836 31.624,40.161C31.815,40.446 32.01,40.819 32.186,41.257ZM33.201,39.81C33.454,39.631 33.741,39.496 34.05,39.415C33.885,38.973 33.747,38.449 33.682,37.864C33.43,38.169 33.175,38.469 32.915,38.766C32.97,39.11 33.051,39.467 33.201,39.81ZM23.137,41.413C23.137,40.92 23.296,40.42 23.533,39.834C22.487,38.276 21.527,36.294 21.212,33.32C21.206,33.299 21.204,33.278 21.205,33.257C21.176,32.974 21.153,32.683 21.136,32.382C21.131,32.36 21.129,32.337 21.132,32.312C21.127,32.212 21.122,32.111 21.119,32.009C21.082,31.047 21.143,30.074 21.297,29.11C21.296,29.081 21.3,29.054 21.31,29.03C21.358,28.742 21.413,28.455 21.477,28.17C21.476,28.141 21.483,28.112 21.496,28.084C22.119,25.363 23.476,22.753 25.447,20.661C25.461,20.641 25.478,20.623 25.498,20.608C26.079,19.997 26.714,19.43 27.398,18.919L27.411,18.909C28.483,18.11 29.676,17.446 30.979,16.957C30.993,16.949 31.007,16.944 31.022,16.941C32.618,16.346 34.38,16.014 36.284,16.014C36.396,16.003 36.507,16.003 36.616,16.017C37.319,16.032 38.041,16.091 38.781,16.199C39.11,15.777 39.516,15.554 40.01,15.473C39.967,15.461 39.924,15.449 39.881,15.438C39.873,15.436 39.865,15.434 39.857,15.432C38.94,15.19 38.02,15.042 37.106,14.981L37.092,14.981C32.239,14.663 27.555,16.797 24.32,20.353L24.311,20.364C23.657,21.083 23.063,21.861 22.539,22.688C22.533,22.699 22.527,22.709 22.52,22.719C22.035,23.486 21.611,24.296 21.255,25.142C21.253,25.148 21.251,25.153 21.249,25.158C20.9,25.99 20.618,26.856 20.409,27.75C19.606,31.203 19.908,35.067 21.771,38.977L21.774,38.983C22.16,39.792 22.613,40.603 23.137,41.413ZM23.925,39.663C23.944,39.682 23.959,39.703 23.969,39.727C24.121,39.949 24.274,40.162 24.427,40.369C25.254,39.731 26.033,39.053 26.772,38.342C26.407,38.154 26.076,37.986 25.77,37.815C25.202,38.389 24.812,38.65 23.839,38.638C23.681,38.636 23.594,38.516 23.641,38.365C23.816,37.807 23.651,36.475 23.64,35.783C23.561,35.649 23.483,35.505 23.405,35.352C23.146,35.406 22.83,35.424 22.399,35.424C22.158,35.424 22.079,35.22 22.257,35.058C22.908,34.465 22.81,33.614 22.948,32.519C22.575,32.716 21.901,33.185 21.641,33.371C21.962,36.247 22.903,38.154 23.925,39.663ZM25.974,42.39C34.584,36.628 38.022,26.137 45.724,19.527L44.586,19.298C44.362,19.248 44.362,19.253 44.385,19L44.572,17.4C37.456,24.667 33.484,36.593 25.42,41.654C25.611,41.901 25.797,42.144 25.974,42.39ZM46.008,16.039C45.682,16.324 45.364,16.618 45.051,16.922L44.817,18.907L46.137,19.18C46.38,18.98 46.627,18.784 46.878,18.593L46.702,18.076C46.324,18.205 45.913,18.004 45.785,17.625C45.656,17.247 45.858,16.837 46.236,16.708L46.008,16.039ZM27.251,38.455C26.441,39.251 25.588,40.005 24.681,40.705L24.741,40.784C24.881,40.966 25.021,41.144 25.159,41.321C29.397,38.676 32.494,34.072 35.572,29.2C38.24,24.977 41.041,20.255 44.678,16.697C44.693,16.676 44.711,16.658 44.731,16.645C45.099,16.287 45.475,15.941 45.861,15.609L45.539,14.663C44.133,15.814 42.856,17.146 41.671,18.579C41.659,18.599 41.644,18.618 41.626,18.634C39.345,21.401 37.405,24.535 35.544,27.451C34.564,28.987 33.57,30.531 32.523,32.036C32.513,32.059 32.499,32.079 32.482,32.095C32.058,32.703 31.626,33.305 31.182,33.897C31.171,33.918 31.157,33.936 31.141,33.951C30.82,34.378 30.493,34.8 30.159,35.215C30.149,35.234 30.135,35.252 30.117,35.268C29.629,35.873 29.126,36.466 28.605,37.041C28.593,37.061 28.577,37.079 28.557,37.094C28.144,37.549 27.719,37.993 27.281,38.426L27.251,38.455ZM27.089,38.032C27.404,37.719 27.713,37.401 28.014,37.077C26.052,36.756 24.971,35.831 24.538,34.671C24.268,34.929 24.055,35.104 23.81,35.219C23.873,35.34 23.935,35.453 23.998,35.56C24.023,35.583 24.042,35.614 24.053,35.651C24.845,36.951 25.729,37.33 27.089,38.032ZM28.359,36.701C28.682,36.344 28.997,35.981 29.307,35.612C25.705,36.636 23.428,30.955 29.583,28.624C29.139,28.474 28.693,28.311 28.258,28.121C24.258,29.912 22.923,35.998 28.359,36.701ZM29.863,34.934C30.178,34.541 30.487,34.142 30.791,33.739C30.936,32.676 30.662,31.492 29.336,30.899C28.959,31.093 28.618,31.325 28.341,31.603C30.293,31.916 30.253,34.373 28.485,34.373C27.02,34.373 27.097,32.558 27.731,31.673C27.74,31.657 27.751,31.642 27.764,31.629L27.769,31.622C28.083,31.217 28.551,30.828 29.204,30.496C29.225,30.48 29.249,30.467 29.276,30.46C29.752,30.226 30.324,30.021 31.002,29.86C31.026,29.849 31.053,29.842 31.08,29.842C31.488,29.748 31.933,29.67 32.418,29.611C32.041,29.441 31.616,29.288 31.158,29.136C30.86,29.037 30.553,28.94 30.24,28.84C23.603,30.984 26.269,36.836 29.863,34.934ZM31.244,33.128C31.538,32.726 31.826,32.321 32.111,31.912C32.029,31.5 31.58,30.751 31.038,30.289C30.63,30.389 30.216,30.515 29.824,30.675C30.85,31.265 31.216,32.213 31.244,33.128ZM32.412,31.476C32.717,31.031 33.018,30.582 33.317,30.131C33.243,30.074 33.165,30.019 33.083,29.967C32.654,30.002 32.112,30.067 31.536,30.18C31.914,30.565 32.239,31.057 32.412,31.476ZM33.548,29.779C33.856,29.308 34.161,28.836 34.465,28.363C33.305,28.093 31.197,28.24 29.883,28.268C30.34,28.425 30.812,28.577 31.29,28.736C31.996,28.97 32.668,29.219 33.217,29.554C33.241,29.563 33.261,29.576 33.278,29.592C33.372,29.651 33.463,29.713 33.548,29.779ZM34.704,27.99C34.921,27.65 35.137,27.31 35.353,26.97C34.065,26.568 31.982,26.663 30.715,26.682C29.167,26.706 27.557,26.718 26.298,26.402C26.951,27.004 27.756,27.439 28.651,27.808C29.283,27.914 30.864,27.818 31.404,27.803C32.587,27.772 33.883,27.764 34.704,27.99ZM35.586,26.604C35.769,26.315 35.953,26.027 36.136,25.74C34.485,25.106 31.831,25.324 30.132,25.329C28.16,25.334 26.172,25.201 24.89,24.12C25.085,24.768 25.367,25.309 25.718,25.768C27.609,26.579 31.247,26.16 33.475,26.269C34.263,26.308 34.992,26.399 35.586,26.604ZM36.367,25.378C36.557,25.081 36.748,24.784 36.939,24.488C36.282,24.273 35.64,24.127 35.005,24.029C34.984,24.029 34.962,24.026 34.942,24.019C33.275,23.77 31.645,23.846 29.853,23.859C28.741,23.867 27.701,23.826 26.788,23.536C26.763,23.533 26.739,23.526 26.716,23.513C25.964,23.262 25.299,22.836 24.755,22.121C24.7,22.192 24.646,22.263 24.593,22.336C24.612,22.684 24.649,23.011 24.702,23.317C25.77,24.713 27.827,24.914 30.131,24.908C31.952,24.904 34.63,24.672 36.367,25.378ZM41.487,18.144C41.69,17.902 41.894,17.663 42.102,17.428C40.992,17.06 39.916,16.801 38.876,16.64C38.858,16.64 38.841,16.637 38.824,16.633C38.339,16.559 37.862,16.507 37.393,16.475C37.575,16.732 37.682,17.104 37.66,17.614C37.908,17.824 38.051,18.128 38.082,18.443C38.388,18.255 38.797,18.196 39.257,18.347C39.638,17.5 40.774,17.369 41.487,18.144ZM18.158,43.237L22.01,40.358C21.827,40.028 21.654,39.699 21.493,39.369L18.272,41.333C18.033,41.479 17.814,41.12 18.053,40.974L21.31,38.987C21.18,38.708 21.058,38.429 20.944,38.151L16.52,40.209C16.976,41.232 17.52,42.244 18.158,43.237ZM22.22,40.726L18.389,43.59C19.03,44.55 19.759,45.493 20.582,46.41L23.588,42.809C23.389,42.537 23.198,42.266 23.015,41.994L20.148,44.829C19.948,45.027 19.652,44.727 19.852,44.53L22.779,41.635C22.583,41.332 22.397,41.029 22.22,40.726ZM16.352,39.823L20.787,37.76C20.675,37.469 20.571,37.18 20.475,36.891L16.853,37.955C16.584,38.033 16.465,37.63 16.734,37.551L20.347,36.49C20.226,36.097 20.12,35.705 20.029,35.315L15.22,36.342C15.491,37.51 15.867,38.673 16.352,39.823ZM15.129,35.931L19.937,34.904C19.865,34.562 19.804,34.221 19.754,33.882L15.924,34.241C15.645,34.267 15.606,33.848 15.885,33.822L19.697,33.465C19.649,33.082 19.615,32.701 19.594,32.324L14.682,32.225C14.721,33.456 14.868,34.696 15.129,35.931ZM14.673,31.804L19.576,31.903C19.566,31.568 19.566,31.235 19.576,30.905L15.782,30.486C15.503,30.455 15.549,30.037 15.828,30.068L19.594,30.484C19.617,30.062 19.656,29.645 19.711,29.232L14.927,28.247C14.746,29.418 14.659,30.607 14.673,31.804ZM14.995,27.832L19.772,28.815C19.823,28.49 19.884,28.168 19.955,27.849L16.296,26.697C16.028,26.613 16.155,26.211 16.422,26.295L20.051,27.438C20.129,27.121 20.217,26.807 20.313,26.497L15.912,24.3C15.513,25.448 15.205,26.629 14.995,27.832ZM16.055,23.901L20.445,26.093C20.552,25.777 20.668,25.465 20.793,25.157L17.438,23.101C17.199,22.954 17.419,22.595 17.658,22.742L20.959,24.765C21.106,24.43 21.263,24.1 21.43,23.777L17.481,20.767C16.93,21.775 16.452,22.823 16.055,23.901ZM17.689,20.396L21.63,23.4C21.773,23.139 21.923,22.882 22.08,22.629L19.186,19.854C18.984,19.659 19.275,19.356 19.478,19.55L22.31,22.266C22.522,21.941 22.745,21.624 22.978,21.314L19.655,17.477C18.928,18.4 18.27,19.377 17.689,20.396ZM19.923,17.143L23.24,20.975C23.448,20.712 23.664,20.456 23.886,20.206L21.427,16.825C21.262,16.599 21.602,16.351 21.767,16.578L24.176,19.889C24.421,19.627 24.674,19.372 24.934,19.126L22.316,14.616C21.457,15.399 20.657,16.244 19.923,17.143ZM22.637,14.33L25.251,18.834C25.478,18.63 25.709,18.432 25.946,18.24L24.223,14.274C24.111,14.016 24.497,13.848 24.609,14.106L26.288,17.97C26.588,17.739 26.896,17.518 27.21,17.307L25.489,12.192C24.482,12.831 23.529,13.547 22.637,14.33ZM25.857,11.964L27.575,17.07C27.846,16.898 28.122,16.734 28.402,16.578L27.385,12.315C27.319,12.042 27.729,11.944 27.794,12.217L28.785,16.371C29.085,16.214 29.39,16.066 29.698,15.927L28.955,10.395C27.878,10.838 26.842,11.365 25.857,11.964ZM29.359,10.234L30.099,15.754C30.422,15.619 30.748,15.495 31.078,15.382L30.927,10.776C30.917,10.496 31.338,10.482 31.347,10.762L31.494,15.245C31.817,15.143 32.144,15.052 32.473,14.971L32.865,9.201C31.656,9.448 30.485,9.796 29.359,10.234ZM33.293,9.118L32.901,14.873C33.278,14.791 33.659,14.724 34.042,14.671L34.737,10.122C34.779,9.845 35.196,9.909 35.153,10.186L34.476,14.617C34.772,14.584 35.07,14.56 35.369,14.545L36.858,8.764C35.64,8.784 34.45,8.906 33.293,9.118ZM37.293,8.761L35.807,14.53C36.189,14.521 36.572,14.528 36.956,14.549L38.378,9.999C38.462,9.731 38.864,9.857 38.78,10.124L37.388,14.579C37.736,14.608 38.086,14.65 38.436,14.704L40.86,9.058C39.651,8.861 38.46,8.765 37.293,8.761ZM41.287,9.131L38.863,14.777C39.178,14.836 39.493,14.905 39.808,14.984L42.187,10.392C42.316,10.143 42.69,10.336 42.561,10.585L40.224,15.095C40.636,15.212 41.047,15.346 41.456,15.5L44.758,10.029C43.588,9.636 42.43,9.339 41.287,9.131ZM33.652,21.816C33.648,21.852 33.636,21.886 33.614,21.916C33.591,21.948 33.558,21.973 33.514,21.987C33.503,21.991 33.491,21.993 33.479,21.996C33.125,22.057 32.766,22.048 32.42,21.979C32.382,22.014 32.341,22.047 32.296,22.079C32.355,22.478 32.56,22.991 33.033,23.434C33.349,23.445 33.664,23.462 33.979,23.487L34.931,19.623C33.896,19.319 33.61,17.482 35.005,17.245C34.994,16.945 35.121,16.677 35.326,16.467C34.591,16.512 33.88,16.61 33.195,16.754L33.391,18.91C33.398,18.935 33.4,18.96 33.398,18.984L33.419,19.213C33.444,19.492 33.025,19.531 32.999,19.251L32.984,19.086L32.117,18.47C31.891,18.662 31.748,18.947 31.748,19.266C31.748,19.841 32.215,20.308 32.79,20.308C32.895,20.308 32.996,20.293 33.092,20.264L33.085,20.188C33.059,19.909 33.479,19.871 33.504,20.15L33.524,20.365C33.527,20.382 33.529,20.399 33.528,20.415L33.651,21.765C33.653,21.786 33.653,21.802 33.652,21.816ZM32.087,17.933L32.21,18.021C32.225,18.029 32.239,18.038 32.252,18.05L32.934,18.534L32.781,16.847C32.232,16.979 31.7,17.142 31.186,17.332C30.094,18.524 30.218,19.783 30.898,20.626C30.922,20.645 30.94,20.668 30.954,20.693C31.493,21.317 32.343,21.692 33.214,21.607L33.13,20.689C33.021,20.715 32.907,20.729 32.79,20.729C31.983,20.729 31.327,20.073 31.327,19.266C31.327,18.85 31.501,18.475 31.779,18.209C31.675,18.036 31.886,17.791 32.087,17.933ZM31.901,21.829C31.449,21.656 31.036,21.381 30.707,21.035C29.227,21.414 27.944,20.309 27.456,19.404C26.948,19.797 26.469,20.221 26.021,20.672L26.922,20.911C26.933,20.913 26.944,20.916 26.954,20.92L27.183,20.98C27.216,20.983 27.249,20.993 27.281,21.014C27.313,21.033 27.337,21.058 27.353,21.087C28.422,22.297 30.947,22.317 31.901,21.829ZM30.408,20.666C29.846,19.847 29.712,18.753 30.415,17.644C29.476,18.056 28.602,18.564 27.797,19.149C28.176,19.916 29.23,20.844 30.408,20.666ZM27.052,21.381L27.007,21.369C26.861,21.801 26.878,22.704 26.992,23.159C27.813,23.404 28.769,23.446 29.85,23.438C30.751,23.432 31.608,23.41 32.449,23.421C32.147,23.041 31.981,22.639 31.905,22.285C30.651,22.786 28.171,22.623 27.052,21.381ZM27.767,27.894C27.497,27.76 27.232,27.613 26.976,27.45C26.663,27.676 26.378,27.896 26.117,28.112C26.108,28.122 26.097,28.131 26.086,28.138C25.531,28.6 25.092,29.041 24.742,29.46C24.733,29.474 24.723,29.486 24.711,29.498C24.553,29.689 24.414,29.876 24.291,30.059C24.282,30.081 24.269,30.101 24.251,30.119C23.756,30.874 23.538,31.552 23.426,32.156C23.26,33.051 23.385,34.204 22.865,34.991C23.68,34.943 23.907,34.715 24.404,34.215C23.907,31.976 25.514,29.098 27.767,27.894ZM28.017,31.993C27.962,32.075 27.911,32.161 27.867,32.25C27.382,33.212 27.903,33.951 28.485,33.951C29.799,33.951 29.721,32.067 28.017,31.993ZM25.637,27.968C24.905,27.396 24.119,26.76 23.711,25.923C23.642,26.396 23.68,26.842 23.778,27.252L23.782,27.267C23.953,27.963 24.296,28.555 24.584,29.001C24.878,28.668 25.226,28.323 25.637,27.968ZM24.091,36.448C24.131,37.036 24.186,37.629 24.103,38.21C24.777,38.163 25.032,37.967 25.398,37.595C24.906,37.288 24.483,36.944 24.091,36.448ZM23.883,28.636L23.063,29.05L23.491,29.964C23.649,29.887 23.81,29.826 23.971,29.784C24.071,29.638 24.181,29.489 24.301,29.338C24.151,29.106 24.01,28.872 23.883,28.636ZM21.557,32.372C21.567,32.545 21.579,32.716 21.593,32.883C21.989,32.598 22.632,32.161 23.022,32.041C23.12,31.531 23.289,30.975 23.613,30.373C23.579,30.39 23.546,30.408 23.513,30.426C23.504,30.432 23.494,30.438 23.484,30.443C22.578,30.962 21.745,32.009 21.557,32.372ZM21.638,29.702C21.557,30.357 21.521,31.013 21.53,31.666C21.736,31.4 22.009,31.091 22.323,30.798L21.638,29.702ZM21.878,28.297C21.823,28.55 21.773,28.804 21.731,29.058L22.644,30.517C22.797,30.392 22.957,30.275 23.121,30.171C22.388,28.652 22.242,28.971 23.694,28.259C23.587,28.027 23.495,27.792 23.423,27.552C23.032,27.644 22.405,27.926 21.878,28.297ZM24.215,22.868C23.209,24.353 22.467,26.001 22.021,27.705C22.473,27.438 22.957,27.231 23.321,27.144C23.195,26.5 23.224,25.823 23.489,25.092C23.58,24.84 23.854,24.867 23.895,25.132C24.06,26.203 25.132,27.042 25.967,27.691C26.167,27.529 26.38,27.365 26.607,27.198C25.394,26.312 24.455,24.997 24.215,22.868ZM25.687,21.019C25.458,21.265 25.237,21.519 25.025,21.779C25.446,22.363 25.95,22.745 26.533,22.994C26.457,22.477 26.452,21.735 26.601,21.261L25.687,21.019ZM37.515,19.627C37.325,19.74 37.087,19.811 36.799,19.819C36.717,20.414 36.643,21.052 36.73,21.642L37.845,20.441C37.645,20.174 37.541,19.894 37.515,19.627ZM36.272,20.906C35.957,20.828 35.648,20.73 35.517,20.405C35.459,20.26 35.924,20.332 35.981,20.333C36.094,20.336 36.207,20.308 36.318,20.274C36.343,20.042 36.375,19.81 36.407,19.582C36.407,19.576 36.408,19.57 36.409,19.564C36.42,19.489 36.43,19.414 36.44,19.339C36.478,19.062 36.893,19.117 36.858,19.393C38.099,19.29 37.855,17.516 36.542,17.777C36.267,17.832 36.185,17.419 36.46,17.364C36.758,17.305 37.017,17.318 37.235,17.384C37.098,15.603 34.369,16.69 35.923,18.025C36.137,18.208 35.862,18.527 35.65,18.344C35.377,18.111 35.202,17.878 35.103,17.656C34.135,17.805 34.416,18.997 35.033,19.212L35.041,19.177C35.108,18.905 35.517,19.005 35.45,19.278L35.396,19.495C35.395,19.505 35.392,19.514 35.39,19.523L34.403,23.527C34.575,23.545 34.747,23.566 34.92,23.591L36.376,22.023C36.285,21.659 36.261,21.284 36.272,20.906ZM38.35,22.356C38.118,22.034 38.035,21.56 38.113,21.186C38.153,20.994 38.341,21.301 38.378,21.337C38.508,21.464 38.686,21.542 38.86,21.616C39.214,21.108 39.575,20.606 39.943,20.111C40.358,19.552 40.782,19.005 41.216,18.472C40.495,17.61 39.273,18.1 39.612,19.464C39.68,19.736 39.271,19.838 39.203,19.565C39.128,19.261 39.112,18.99 39.144,18.755C38.222,18.45 37.564,19.289 38.137,20.127C38.328,19.946 38.62,20.224 38.433,20.426L36.793,22.192C36.78,22.214 36.762,22.232 36.742,22.247L35.42,23.672C35.995,23.776 36.578,23.922 37.176,24.123C37.563,23.53 37.953,22.94 38.35,22.356ZM36.491,34.15C38.831,33.219 39.571,31.325 39.459,29.816C38.927,30.599 38.413,31.365 37.917,32.092C37.448,32.779 36.974,33.467 36.491,34.15ZM41.146,28.803C42.139,27.792 42.457,26.704 42.455,25.66C41.911,26.352 41.385,27.062 40.876,27.775C40.994,28.121 41.084,28.464 41.146,28.803ZM44.185,25.034C45.251,24.159 45.671,23.259 45.644,22.155C45.074,22.677 44.522,23.242 43.987,23.835C44.077,24.243 44.144,24.643 44.185,25.034ZM44.17,26.75C46.336,25.733 47.259,23.408 47.055,20.982C46.712,21.238 46.375,21.511 46.044,21.798C46.186,23.289 45.656,24.453 44.222,25.541C44.239,25.954 44.224,26.357 44.17,26.75ZM35.646,35.812C35.655,35.81 35.663,35.81 35.672,35.809C38.143,35.569 40.307,33.603 40.751,30.989C40.751,30.967 40.754,30.945 40.762,30.924C40.844,30.4 40.858,29.852 40.792,29.287C40.786,29.265 40.783,29.243 40.785,29.221C40.742,28.887 40.672,28.548 40.571,28.205C40.314,28.57 40.062,28.934 39.814,29.297C40.174,31.156 39.32,33.758 36.069,34.742C35.807,35.109 35.541,35.472 35.272,35.833C35.397,35.83 35.522,35.823 35.646,35.812ZM26.557,43.287C26.564,43.297 26.57,43.308 26.575,43.318C26.618,43.395 26.661,43.473 26.701,43.552C27.527,43.068 28.311,42.521 29.06,41.924C29.069,41.914 29.08,41.906 29.091,41.899C29.443,41.617 29.788,41.323 30.125,41.019C30.14,41.001 30.156,40.986 30.175,40.974C30.517,40.664 30.852,40.344 31.179,40.015C31.192,39.999 31.206,39.985 31.222,39.973C31.66,39.531 32.087,39.073 32.503,38.601C32.518,38.572 32.539,38.549 32.565,38.531C32.939,38.105 33.304,37.669 33.663,37.225C33.677,37.194 33.698,37.17 33.723,37.151C34.043,36.753 34.357,36.349 34.667,35.939C34.695,35.902 34.692,35.912 34.718,35.872C35.066,35.411 35.408,34.945 35.745,34.474C35.756,34.449 35.772,34.426 35.794,34.406C37.031,32.678 38.212,30.897 39.398,29.174C39.408,29.153 39.42,29.135 39.435,29.119C39.773,28.629 40.112,28.144 40.452,27.666C40.462,27.644 40.476,27.625 40.493,27.609C41.078,26.788 41.671,25.988 42.277,25.223C42.334,25.151 42.391,25.079 42.449,25.008C42.461,24.984 42.477,24.964 42.497,24.948C42.851,24.508 43.211,24.08 43.577,23.668C43.589,23.649 43.604,23.633 43.62,23.619C44.275,22.885 44.95,22.199 45.655,21.578C45.669,21.56 45.686,21.545 45.705,21.533C46.148,21.145 46.603,20.783 47.071,20.449C47.087,20.433 47.106,20.42 47.127,20.409L47.194,20.363C47.205,20.354 47.216,20.345 47.229,20.338C47.295,20.293 47.36,20.248 47.427,20.203L47.021,19.013C46.792,19.19 46.567,19.37 46.345,19.553C46.334,19.565 46.322,19.575 46.308,19.584C38.378,26.17 34.988,36.86 26.214,42.736C26.335,42.917 26.45,43.1 26.557,43.287ZM34.128,44.064C34.142,44.067 34.157,44.071 34.17,44.076C34.343,44.12 34.524,44.142 34.711,44.142C35.239,44.142 35.724,43.956 36.103,43.645C36.11,43.638 36.119,43.631 36.127,43.625C36.603,43.223 36.906,42.62 36.906,41.947C36.906,41.622 36.835,41.313 36.708,41.036C36.699,41.02 36.691,41.004 36.685,40.986C36.329,40.256 35.579,39.752 34.711,39.752C34.601,39.752 34.494,39.761 34.388,39.776L34.343,39.783C33.943,39.85 33.579,40.026 33.283,40.28L33.253,40.306C32.8,40.708 32.515,41.294 32.515,41.947C32.515,42.958 33.198,43.809 34.128,44.064ZM28.445,52.034C29.088,51.808 29.659,51.53 30.166,51.214C30.184,51.197 30.205,51.183 30.23,51.174C30.711,50.869 31.135,50.528 31.505,50.166C31.517,50.15 31.532,50.135 31.548,50.123C33.429,48.256 33.939,45.815 33.887,44.431C33.454,44.288 33.071,44.034 32.771,43.704C32.997,46.148 32.216,49.096 28.661,50.871C28.606,50.902 28.591,50.907 28.563,50.91C28.541,50.912 28.495,50.911 28.437,50.89C27.833,50.698 27.214,50.381 26.666,49.979C26.597,49.932 26.597,49.93 26.536,49.881C26.047,49.502 25.623,49.056 25.327,48.572C25.292,48.516 25.294,48.52 25.272,48.479C24.57,47.253 24.703,45.804 26.685,44.616C26.587,44.3 26.459,43.999 26.307,43.708C22.262,46.473 23.865,49.899 28.445,52.034ZM30.352,51.595C29.94,51.849 29.488,52.078 28.994,52.277C31.416,53.298 34.533,53.926 37.87,53.87C35.904,53.106 32.245,51.954 30.352,51.595ZM31.735,50.531C31.465,50.789 31.17,51.036 30.847,51.266C33.203,51.78 37.386,53.153 38.858,53.83C39.758,53.779 40.672,53.677 41.591,53.52C39.072,52.663 33.989,51.076 31.735,50.531ZM34.311,44.533C34.332,45.96 33.817,48.306 32.079,50.182C34.7,50.843 40.348,52.625 42.423,53.363C42.704,53.305 42.985,53.241 43.267,53.172C42.907,51.512 42.941,49.08 43.765,46.453C41.412,46.302 38.734,45.579 36.258,44.057C35.825,44.375 35.29,44.563 34.711,44.563C34.575,44.563 34.441,44.553 34.311,44.533ZM34.296,38.813C34.349,39.002 34.409,39.178 34.473,39.342C34.551,39.335 34.63,39.331 34.711,39.331C35.126,39.331 35.519,39.428 35.868,39.6C36.132,38.472 35.02,37.981 34.296,38.813ZM35.804,36.707C37.678,37.16 38.318,39.567 37.137,40.966C37.259,41.269 37.327,41.6 37.327,41.947C37.327,42.655 37.047,43.296 36.591,43.767C40.26,45.981 44.359,46.403 47.068,45.831C49.9,45.233 50.917,43.72 49.13,42.078C48.82,41.793 49.665,41.015 50.287,40.942C50.358,40.537 50.19,40.25 49.862,40.082C48.98,39.999 47.57,40.463 46.638,40.673C46.583,40.856 46.312,40.903 46.241,40.68C46.144,40.376 46.396,39.911 46.462,39.77C46.59,39.496 46.937,39.677 46.817,39.919C46.773,40.005 46.727,40.119 46.692,40.229C47.659,40.001 48.943,39.589 49.86,39.66C50.088,39.493 50.692,39.042 50.563,38.74C50.527,38.657 50.46,38.558 50.352,38.414C49.9,37.816 50.091,37.397 50.508,36.949C49.789,36.858 48.876,36.951 48.391,37.49C48.112,37.8 47.613,36.973 47.56,36.851C47.36,36.394 47.392,35.786 48.09,35.14C48.296,34.949 48.581,35.259 48.376,35.449C47.819,35.964 47.677,36.522 48.202,37.048L48.225,37.071C48.978,36.452 50.031,36.386 50.952,36.601L50.96,36.603L50.967,36.602C52.561,36.498 52.434,35.855 52.021,34.685C51.857,34.224 51.636,33.688 51.402,33.073C51.061,32.177 50.427,30.351 49.75,28.366C47.934,27.653 45.352,28.071 43.367,28.953C42.878,29.722 42.159,30.444 41.157,31.117C40.669,33.83 38.448,35.888 35.871,36.211L35.804,36.707ZM35.388,36.641L35.441,36.248C35.281,36.256 35.119,36.257 34.957,36.251C34.665,36.635 34.369,37.015 34.068,37.39C34.081,37.717 34.12,38.027 34.177,38.317C35.069,37.575 36.768,38.07 36.242,39.826C36.514,40.022 36.746,40.269 36.925,40.553C37.856,39.239 37.06,37.112 35.239,37.054C34.958,37.046 34.972,36.625 35.252,36.634C35.298,36.635 35.343,36.637 35.388,36.641ZM42.696,21.547C42.696,21.764 42.52,21.94 42.303,21.94C42.086,21.94 41.91,21.764 41.91,21.547C41.91,21.33 42.086,21.154 42.303,21.154C42.52,21.154 42.696,21.33 42.696,21.547ZM43.828,20.246C43.828,20.488 43.632,20.684 43.39,20.684C43.148,20.684 42.952,20.488 42.952,20.246C42.952,20.004 43.148,19.807 43.39,19.807C43.632,19.807 43.828,20.004 43.828,20.246ZM41.6,22.949C41.6,23.14 41.444,23.296 41.253,23.296C41.061,23.296 40.906,23.14 40.906,22.949C40.906,22.757 41.061,22.602 41.253,22.602C41.444,22.602 41.6,22.757 41.6,22.949ZM29.575,19.164C29.575,19.399 29.385,19.589 29.15,19.589C28.916,19.589 28.726,19.399 28.726,19.164C28.726,18.93 28.916,18.74 29.15,18.74C29.385,18.74 29.575,18.93 29.575,19.164ZM34.711,42.704C35.129,42.704 35.468,42.366 35.468,41.947C35.468,41.529 35.129,41.19 34.711,41.19C34.293,41.19 33.954,41.529 33.954,41.947C33.954,42.366 34.293,42.704 34.711,42.704ZM34.711,43.125C34.06,43.125 33.533,42.598 33.533,41.947C33.533,41.296 34.06,40.769 34.711,40.769C35.361,40.769 35.889,41.296 35.889,41.947C35.889,42.598 35.361,43.125 34.711,43.125ZM50.952,36.601C50.957,36.601 50.962,36.602 50.967,36.602L50.96,36.603L50.952,36.601ZM44.734,31.865C44.623,31.509 44.579,31.112 44.609,30.621C43.969,30.815 43.365,31.103 42.848,31.51C43.042,31.574 43.32,31.655 43.667,31.725C43.973,31.786 44.332,31.839 44.734,31.865ZM45.04,30.506C44.987,31.098 45.046,31.518 45.185,31.882C45.454,31.885 45.738,31.874 46.034,31.846C45.897,31.654 45.801,31.396 45.776,31.109C45.752,30.83 45.798,30.567 45.892,30.358C45.607,30.392 45.321,30.441 45.04,30.506ZM46.803,29.874C47.086,29.858 47.389,29.84 47.581,29.893C47.721,29.902 47.785,30.006 47.782,30.109C47.778,30.361 47.453,30.495 47.2,30.577C47.241,30.698 47.269,30.83 47.281,30.969C47.331,31.562 47.082,32.094 46.703,32.179C46.691,32.183 46.677,32.187 46.662,32.189C46.196,32.266 45.654,32.304 45.095,32.295C45.055,32.306 45.012,32.306 44.972,32.292C44.102,32.267 43.202,32.125 42.489,31.832C42.475,31.846 42.469,31.854 42.469,31.854C42.289,32.07 41.966,31.801 42.145,31.585C42.15,31.579 42.194,31.527 42.28,31.445C42.292,31.429 42.306,31.416 42.321,31.405C42.786,30.972 44.19,29.91 46.803,29.874Z" style="fill-rule:nonzero;"/>
        <path d="M61.85,13.933L61.85,14.679L64.224,14.679L64.224,22.011L65.115,22.011L65.115,14.679L67.502,14.679L67.502,13.933L61.85,13.933ZM69.314,13.933L69.314,22.011L73.705,22.011L73.705,21.264L70.218,21.264L70.218,18.2L73.376,18.2L73.376,17.454L70.218,17.454L70.218,14.679L73.705,14.679L73.705,13.933L69.314,13.933ZM79.657,14.441C80.432,14.441 81.115,14.597 81.75,15.019L82.093,14.371C81.335,13.975 80.584,13.757 79.657,13.757C77.269,13.757 75.389,15.477 75.389,17.942C75.389,20.571 77.267,22.127 79.657,22.127C80.475,22.127 81.342,21.812 82.057,21.409L81.736,20.834C81.105,21.184 80.373,21.444 79.657,21.444C77.695,21.444 76.31,19.882 76.31,17.942C76.31,16.003 77.695,14.441 79.657,14.441ZM84.139,13.933L84.139,22.011L85.044,22.011L85.044,18.141L89.446,18.141L89.446,22.011L90.344,22.011L90.344,13.933L89.446,13.933L89.446,17.408L85.044,17.408L85.044,13.933L84.139,13.933ZM94.163,13.748L93.225,13.987L93.225,22.011L94.088,22.011L94.084,15.076L98.833,22.189L99.786,21.926L99.786,13.933L98.946,13.933L98.93,20.863L94.163,13.748ZM103.059,13.933L103.059,22.011L103.956,22.011L103.956,13.933L103.059,13.933ZM108.561,21.518C107.933,21.518 107.289,21.244 106.842,20.948L106.483,21.534C107.134,21.926 107.779,22.131 108.62,22.131C110.377,22.131 111.193,21.03 111.193,19.854C111.193,18.623 110.32,18.104 109.396,17.66L108.717,17.335C108.129,17.038 107.503,16.652 107.503,15.891C107.503,14.844 108.366,14.371 109.107,14.371C109.861,14.371 110.352,14.636 110.819,14.939L111.13,14.345C110.506,13.984 109.819,13.758 109.059,13.758C107.635,13.758 106.652,14.62 106.652,15.832C106.652,17.522 107.889,17.827 109.078,18.401C109.732,18.717 110.272,19.112 110.272,19.937C110.272,20.906 109.561,21.518 108.561,21.518ZM117.432,14.441C118.207,14.441 118.89,14.597 119.525,15.019L119.868,14.371C119.109,13.975 118.359,13.757 117.432,13.757C115.044,13.757 113.164,15.477 113.164,17.942C113.164,20.571 115.042,22.127 117.432,22.127C118.25,22.127 119.117,21.812 119.832,21.409L119.511,20.834C118.88,21.184 118.148,21.444 117.432,21.444C115.47,21.444 114.085,19.882 114.085,17.942C114.085,16.003 115.47,14.441 117.432,14.441ZM122.182,13.933L122.182,22.011L123.086,22.011L123.086,18.141L127.489,18.141L127.489,22.011L128.386,22.011L128.386,13.933L127.489,13.933L127.489,17.408L123.086,17.408L123.086,13.933L122.182,13.933ZM131.266,13.933L131.266,22.011L135.665,22.011L135.665,21.264L132.177,21.264L132.177,18.2L135.335,18.2L135.335,17.454L132.177,17.454L132.177,14.679L135.665,14.679L135.665,13.933L131.266,13.933ZM69.057,32.594L69.057,27.297L68.153,27.297L68.153,32.464C68.153,34.276 67.279,34.847 65.885,34.847C64.357,34.847 63.711,34.013 63.711,32.464L63.711,27.297L62.781,27.297L62.805,32.672C62.805,34.514 63.889,35.515 65.885,35.515C67.402,35.515 69.057,35.03 69.057,32.594ZM72.553,27.118L71.614,27.357L71.614,35.381L72.477,35.381L72.474,28.447L77.223,35.558L78.175,35.296L78.175,27.303L77.335,27.303L77.319,34.233L72.553,27.118ZM81.01,27.297L81.01,35.381L81.914,35.381L81.914,27.297L81.01,27.297ZM84.54,27.173L83.662,27.45L86.747,35.381L87.64,35.381L90.743,27.462L89.886,27.174L87.217,34.424L84.54,27.173ZM92.487,27.297L92.487,35.381L96.879,35.381L96.879,34.635L93.392,34.635L93.392,31.571L96.543,31.571L96.543,30.823L93.392,30.823L93.392,28.043L96.879,28.043L96.879,27.297L92.487,27.297ZM100.982,31.239L99.905,31.239L99.905,27.997L101.207,27.997C102.599,27.997 103.015,28.677 103.015,29.608C103.015,30.894 102.01,31.239 100.982,31.239ZM101.435,27.303L98.994,27.297L98.994,35.387L99.905,35.387L99.905,31.906L100.645,31.906C101.243,31.906 101.55,32.126 101.902,32.555L102.249,33L104.147,35.584L104.935,35.112L103.336,32.996C103.022,32.606 102.593,31.85 102.077,31.727L102.085,31.56C103.199,31.41 103.849,30.764 103.849,29.461C103.849,28.145 102.958,27.303 101.435,27.303ZM108.163,34.943C107.535,34.943 106.892,34.669 106.444,34.373L106.085,34.96C106.736,35.351 107.382,35.555 108.223,35.555C109.979,35.555 110.796,34.455 110.796,33.279C110.796,32.049 109.922,31.529 108.999,31.085L108.32,30.76C107.731,30.464 107.105,30.077 107.105,29.317C107.105,28.269 107.968,27.796 108.709,27.796C109.464,27.796 109.955,28.061 110.421,28.364L110.733,27.771C110.108,27.409 109.422,27.183 108.662,27.183C107.237,27.183 106.255,28.046 106.255,29.257C106.255,30.947 107.491,31.252 108.681,31.826C109.335,32.142 109.874,32.537 109.874,33.363C109.874,34.331 109.163,34.943 108.163,34.943ZM113.22,27.297L113.22,35.381L114.124,35.381L114.124,27.297L113.22,27.297ZM115.891,27.297L115.891,28.043L118.265,28.043L118.265,35.381L119.157,35.381L119.157,28.043L121.543,28.043L121.543,27.297L115.891,27.297ZM125.637,28.111L127.124,32.109L124.103,32.109L125.637,28.111ZM129.309,35.283L126.112,27.297L125.166,27.297L121.873,35.283L122.765,35.595L123.852,32.763L127.367,32.763L128.422,35.601L129.309,35.283ZM127.969,26.784L127.157,26.784L127.157,27.84L127.969,27.84L127.969,26.784ZM124.142,27.84L124.142,26.784L123.337,26.784L123.337,27.84L124.142,27.84ZM130.139,27.297L130.139,28.043L132.512,28.043L132.511,35.381L133.403,35.381L133.404,28.043L135.79,28.043L135.79,27.297L130.139,27.297ZM64.893,48.044L63.711,48.044L63.711,41.366L65.077,41.371C67.318,41.371 68.788,42.518 68.788,44.653C68.788,46.774 67.291,48.044 64.893,48.044ZM65.268,40.659L62.8,40.667L62.8,48.744L64.994,48.744C67.792,48.744 69.644,47.325 69.644,44.594C69.644,42.619 68.514,40.659 65.268,40.659ZM74.658,41.474L76.145,45.473L73.124,45.473L74.658,41.474ZM78.33,48.647L75.133,40.66L74.187,40.66L70.894,48.646L71.786,48.959L72.873,46.127L76.388,46.127L77.443,48.964L78.33,48.647ZM82.468,44.603L81.391,44.603L81.391,41.361L82.693,41.361C84.085,41.361 84.501,42.041 84.501,42.972C84.501,44.258 83.496,44.603 82.468,44.603ZM82.921,40.667L80.48,40.661L80.48,48.751L81.391,48.751L81.391,45.27L82.131,45.27C82.728,45.27 83.036,45.49 83.388,45.919L83.735,46.364L85.632,48.948L86.421,48.475L84.822,46.359C84.508,45.97 84.078,45.214 83.562,45.091L83.57,44.924C84.685,44.774 85.335,44.128 85.335,42.825C85.335,41.509 84.443,40.667 82.921,40.667ZM91.402,40.667L90.415,40.667L88.155,48.657L89.025,48.89L90.928,41.874L92.978,48.744L93.993,48.744L96.076,41.859L97.953,48.889L98.81,48.657L96.563,40.667L95.57,40.667L93.484,47.707L91.402,40.667ZM102.662,48.283C102.034,48.283 101.39,48.01 100.942,47.714L100.583,48.301C101.234,48.691 101.88,48.896 102.721,48.896C104.478,48.896 105.294,47.795 105.294,46.62C105.294,45.389 104.42,44.87 103.497,44.426L102.818,44.1C102.229,43.804 101.603,43.418 101.603,42.657C101.603,41.609 102.466,41.137 103.207,41.137C103.962,41.137 104.453,41.402 104.919,41.704L105.23,41.111C104.606,40.75 103.92,40.523 103.16,40.523C101.735,40.523 100.753,41.386 100.753,42.598C100.753,44.287 101.989,44.593 103.179,45.167C103.833,45.483 104.372,45.878 104.372,46.703C104.372,47.672 103.661,48.283 102.662,48.283ZM106.797,40.667L106.797,41.412L109.171,41.412L109.171,48.744L110.063,48.744L110.063,41.412L112.449,41.412L112.449,40.667L106.797,40.667ZM116.651,41.481L118.138,45.479L115.116,45.479L116.651,41.481ZM120.323,48.654L117.126,40.667L116.179,40.667L112.886,48.654L113.779,48.966L114.866,46.134L118.381,46.134L119.436,48.971L120.323,48.654ZM124.258,48.044L123.077,48.044L123.077,41.366L124.442,41.371C126.684,41.371 128.154,42.518 128.154,44.653C128.154,46.774 126.657,48.044 124.258,48.044ZM124.634,40.659L122.166,40.667L122.166,48.744L124.359,48.744C127.158,48.744 129.01,47.325 129.01,44.594C129.01,42.619 127.88,40.659 124.634,40.659ZM130.11,40.667L130.11,41.412L132.483,41.412L132.483,48.744L133.374,48.744L133.374,41.412L135.761,41.412L135.761,40.667L130.11,40.667Z" style="fill-rule:nonzero;"/>
    </g>
</svg>
